<?xml version="1.0" encoding="UTF-8" standalone="no"?>
<!-- Created with Inkscape (http://www.inkscape.org/) -->

<svg
   xmlns:dc="http://purl.org/dc/elements/1.1/"
   xmlns:cc="http://creativecommons.org/ns#"
   xmlns:rdf="http://www.w3.org/1999/02/22-rdf-syntax-ns#"
   xmlns:svg="http://www.w3.org/2000/svg"
   xmlns="http://www.w3.org/2000/svg"
   xmlns:xlink="http://www.w3.org/1999/xlink"
   xmlns:sodipodi="http://sodipodi.sourceforge.net/DTD/sodipodi-0.dtd"
   xmlns:inkscape="http://www.inkscape.org/namespaces/inkscape"
   width="239.5625"
   height="175.03125"
   id="svg2"
   sodipodi:version="0.32"
   inkscape:version="0.91pre1_64bit "
   sodipodi:docname="SemiCircular_Gauge1.svg"
   inkscape:output_extension="org.inkscape.output.svg.inkscape"
   inkscape:export-filename="C:\Documents and Settings\kuniaki\My Documents\Visual Studio 2008\Projects\WpfApplication1\描画SVG\Digi_Tacho\DigiTachi_Back.png"
   inkscape:export-xdpi="58.349998"
   inkscape:export-ydpi="58.349998"
   version="1.1">
  <defs
     id="defs4">
    <linearGradient
       id="linearGradient4262">
      <stop
         style="stop-color:#000000;stop-opacity:0;"
         offset="0"
         id="stop4264" />
      <stop
         id="stop4266"
         offset="0.87988079"
         style="stop-color:#333333;stop-opacity:0;" />
      <stop
         style="stop-color:#990000;stop-opacity:1"
         offset="0.89661556"
         id="stop4268" />
      <stop
         id="stop4270"
         offset="0.93927014"
         style="stop-color:#ff0000;stop-opacity:1" />
      <stop
         id="stop4272"
         offset="0.96818912"
         style="stop-color:#ff0000;stop-opacity:1" />
      <stop
         id="stop4274"
         offset="1"
         style="stop-color:#dd0000;stop-opacity:1" />
    </linearGradient>
    <linearGradient
       id="linearGradient3203">
      <stop
         style="stop-color:#131a20;stop-opacity:1;"
         offset="0"
         id="stop3205" />
      <stop
         id="stop3215"
         offset="0.15031824"
         style="stop-color:#232c32;stop-opacity:1;" />
      <stop
         id="stop3211"
         offset="0.28092229"
         style="stop-color:#bdd6ec;stop-opacity:1;" />
      <stop
         style="stop-color:#000000;stop-opacity:1;"
         offset="0.49269104"
         id="stop3213" />
      <stop
         style="stop-color:#cbdff0;stop-opacity:1;"
         offset="0.75805265"
         id="stop3272" />
      <stop
         style="stop-color:#1a1a1a;stop-opacity:1;"
         offset="1"
         id="stop3207" />
    </linearGradient>
    <linearGradient
       id="linearGradient4089">
      <stop
         style="stop-color:#00fff0;stop-opacity:1;"
         offset="0"
         id="stop4091" />
      <stop
         id="stop4105"
         offset="0.19933924"
         style="stop-color:#00ff00;stop-opacity:0.99607843;" />
      <stop
         id="stop4097"
         offset="0.43343624"
         style="stop-color:#ffff00;stop-opacity:0.99215686;" />
      <stop
         style="stop-color:#ffff00;stop-opacity:0.99215686;"
         offset="0.85758197"
         id="stop4103" />
      <stop
         style="stop-color:#ff0000;stop-opacity:0.99607843;"
         offset="0.87810516"
         id="stop4101" />
      <stop
         style="stop-color:#ff0000;stop-opacity:1;"
         offset="1"
         id="stop4093" />
    </linearGradient>
    <inkscape:path-effect
       effect="skeletal"
       id="path-effect3538"
       prop_scale="1"
       pattern="m -62,-3 1,0"
       is_visible="true"
       copytype="single_stretched"
       scale_y_rel="false"
       spacing="0"
       normal_offset="0"
       tang_offset="0"
       prop_units="false"
       vertical_pattern="false"
       fuse_tolerance="0" />
    <inkscape:perspective
       sodipodi:type="inkscape:persp3d"
       inkscape:vp_x="0 : 526.18109 : 1"
       inkscape:vp_y="0 : 1000 : 0"
       inkscape:vp_z="744.09448 : 526.18109 : 1"
       inkscape:persp3d-origin="372.04724 : 350.78739 : 1"
       id="perspective10" />
    <filter
       height="2.749732"
       y="-0.87486595"
       width="1.7087522"
       x="-0.35437608"
       id="filter3516"
       inkscape:collect="always"
       color-interpolation-filters="sRGB">
      <feGaussianBlur
         id="feGaussianBlur3518"
         stdDeviation="66.656451"
         inkscape:collect="always" />
    </filter>
    <inkscape:perspective
       id="perspective3503"
       inkscape:persp3d-origin="372.04724 : 350.78739 : 1"
       inkscape:vp_z="744.09448 : 526.18109 : 1"
       inkscape:vp_y="0 : 1000 : 0"
       inkscape:vp_x="0 : 526.18109 : 1"
       sodipodi:type="inkscape:persp3d" />
    <linearGradient
       id="linearGradient3164">
      <stop
         id="stop3166"
         offset="0"
         style="stop-color:#f8f8f8;stop-opacity:1;" />
      <stop
         id="stop3168"
         offset="1"
         style="stop-color:#f1fff1;stop-opacity:0;" />
    </linearGradient>
    <linearGradient
       id="linearGradient3522">
      <stop
         id="stop3524"
         offset="0"
         style="stop-color:#182e38;stop-opacity:1;" />
      <stop
         id="stop3526"
         offset="1"
         style="stop-color:#000000;stop-opacity:1;" />
    </linearGradient>
    <linearGradient
       id="linearGradient3271"
       inkscape:collect="always">
      <stop
         id="stop3273"
         offset="0"
         style="stop-color:#000000;stop-opacity:1;" />
      <stop
         id="stop3275"
         offset="1"
         style="stop-color:#000000;stop-opacity:0;" />
    </linearGradient>
    <linearGradient
       inkscape:collect="always"
       xlink:href="#linearGradient3522"
       id="linearGradient3521"
       gradientUnits="userSpaceOnUse"
       gradientTransform="matrix(0.49263738,0,0,0.55796313,179.25292,-205.6886)"
       x1="230"
       y1="791.86218"
       x2="234"
       y2="597.86218" />
    <linearGradient
       inkscape:collect="always"
       xlink:href="#linearGradient3271"
       id="linearGradient3523"
       gradientUnits="userSpaceOnUse"
       gradientTransform="matrix(0.49263738,0,0,0.55796313,179.25292,-205.6886)"
       x1="252.5"
       y1="465.86218"
       x2="259.5"
       y2="1202.8622" />
    <inkscape:perspective
       id="perspective2926"
       inkscape:persp3d-origin="0.5 : 0.33333333 : 1"
       inkscape:vp_z="1 : 0.5 : 1"
       inkscape:vp_y="0 : 1000 : 0"
       inkscape:vp_x="0 : 0.5 : 1"
       sodipodi:type="inkscape:persp3d" />
    <filter
       color-interpolation-filters="sRGB"
       inkscape:collect="always"
       id="filter3266-1"
       x="-0.53229982"
       width="2.0645995"
       y="-0.98672152"
       height="2.973443">
      <feGaussianBlur
         inkscape:collect="always"
         stdDeviation="3.4252499"
         id="feGaussianBlur3268-7" />
    </filter>
    <filter
       color-interpolation-filters="sRGB"
       inkscape:collect="always"
       id="filter3262-4"
       x="-0.98672152"
       width="2.973443"
       y="-0.53229982"
       height="2.0645995">
      <feGaussianBlur
         inkscape:collect="always"
         stdDeviation="3.4252499"
         id="feGaussianBlur3264-0" />
    </filter>
    <filter
       color-interpolation-filters="sRGB"
       inkscape:collect="always"
       id="filter3258-9"
       x="-0.98672152"
       width="2.973443"
       y="-0.53229982"
       height="2.0645995">
      <feGaussianBlur
         inkscape:collect="always"
         stdDeviation="3.4252499"
         id="feGaussianBlur3260-4" />
    </filter>
    <filter
       color-interpolation-filters="sRGB"
       inkscape:collect="always"
       id="filter3254-8"
       x="-0.53229982"
       width="2.0645995"
       y="-0.98672146"
       height="2.9734428">
      <feGaussianBlur
         inkscape:collect="always"
         stdDeviation="3.4252499"
         id="feGaussianBlur3256-8" />
    </filter>
    <filter
       color-interpolation-filters="sRGB"
       inkscape:collect="always"
       id="filter3250-2"
       x="-0.32293564"
       width="1.6458713"
       y="-0.32293564"
       height="1.6458713">
      <feGaussianBlur
         inkscape:collect="always"
         stdDeviation="3.4252497"
         id="feGaussianBlur3252-4" />
    </filter>
    <filter
       color-interpolation-filters="sRGB"
       inkscape:collect="always"
       id="filter3246-5"
       x="-0.32293564"
       width="1.6458713"
       y="-0.32293564"
       height="1.6458713">
      <feGaussianBlur
         inkscape:collect="always"
         stdDeviation="3.4252497"
         id="feGaussianBlur3248-5" />
    </filter>
    <filter
       color-interpolation-filters="sRGB"
       inkscape:collect="always"
       id="filter3242-1"
       x="-1.6441199"
       width="4.28824"
       y="-0.26518062"
       height="1.5303613">
      <feGaussianBlur
         inkscape:collect="always"
         stdDeviation="3.4252498"
         id="feGaussianBlur3244-7" />
    </filter>
    <filter
       color-interpolation-filters="sRGB"
       inkscape:collect="always"
       id="filter3238-1"
       x="-0.26518062"
       width="1.5303613"
       y="-1.6441199"
       height="4.28824">
      <feGaussianBlur
         inkscape:collect="always"
         stdDeviation="3.4252498"
         id="feGaussianBlur3240-1" />
    </filter>
    <filter
       color-interpolation-filters="sRGB"
       inkscape:collect="always"
       id="filter3234-5"
       x="-0.26518062"
       width="1.5303613"
       y="-1.6441199"
       height="4.28824">
      <feGaussianBlur
         inkscape:collect="always"
         stdDeviation="3.4252498"
         id="feGaussianBlur3236-2" />
    </filter>
    <linearGradient
       inkscape:collect="always"
       xlink:href="#linearGradient3203-6"
       id="linearGradient3352-7"
       x1="72.738014"
       y1="484.46875"
       x2="529.26196"
       y2="484.46875"
       gradientUnits="userSpaceOnUse" />
    <linearGradient
       id="linearGradient3203-6">
      <stop
         style="stop-color:#131a20;stop-opacity:1;"
         offset="0"
         id="stop3205-1" />
      <stop
         id="stop3215-4"
         offset="0.15031824"
         style="stop-color:#232c32;stop-opacity:1;" />
      <stop
         id="stop3211-2"
         offset="0.28092229"
         style="stop-color:#bdd6ec;stop-opacity:1;" />
      <stop
         style="stop-color:#000000;stop-opacity:1;"
         offset="0.49269104"
         id="stop3213-3" />
      <stop
         style="stop-color:#cbdff0;stop-opacity:1;"
         offset="0.75805265"
         id="stop3272-2" />
      <stop
         style="stop-color:#1a1a1a;stop-opacity:1;"
         offset="1"
         id="stop3207-2" />
    </linearGradient>
    <linearGradient
       gradientTransform="matrix(0.396,0,0,0.396,180.21891,36.568807)"
       y2="484.46875"
       x2="529.26196"
       y1="484.46875"
       x1="72.738014"
       gradientUnits="userSpaceOnUse"
       id="linearGradient3183"
       xlink:href="#linearGradient3203-6"
       inkscape:collect="always" />
    <radialGradient
       inkscape:collect="always"
       xlink:href="#linearGradient33859"
       id="radialGradient33865"
       cx="502"
       cy="435.36218"
       fx="502"
       fy="435.36218"
       r="201"
       gradientUnits="userSpaceOnUse"
       gradientTransform="matrix(0.99751244,0,0,0.99751244,1.748756,2.58299)" />
    <linearGradient
       id="linearGradient33859">
      <stop
         id="stop33867"
         offset="0"
         style="stop-color:#000000;stop-opacity:0;" />
      <stop
         style="stop-color:#333333;stop-opacity:0;"
         offset="0.58999997"
         id="stop33877" />
      <stop
         id="stop33879"
         offset="0.60000002"
         style="stop-color:#999999;stop-opacity:1;" />
      <stop
         style="stop-color:#ffffff;stop-opacity:1;"
         offset="0.85000002"
         id="stop33875" />
      <stop
         style="stop-color:#ffffff;stop-opacity:1;"
         offset="0.89999998"
         id="stop33873" />
      <stop
         style="stop-color:#dddddd;stop-opacity:1;"
         offset="1"
         id="stop33863" />
    </linearGradient>
    <radialGradient
       r="201"
       fy="435.36218"
       fx="502"
       cy="435.36218"
       cx="502"
       gradientTransform="matrix(0.96268657,0,0,0.96268657,-181.26865,177.23252)"
       gradientUnits="userSpaceOnUse"
       id="radialGradient37181"
       xlink:href="#linearGradient33859"
       inkscape:collect="always" />
    <radialGradient
       inkscape:collect="always"
       xlink:href="#linearGradient33859-8"
       id="radialGradient33865-4"
       cx="502"
       cy="435.36218"
       fx="502"
       fy="435.36218"
       r="201"
       gradientUnits="userSpaceOnUse" />
    <linearGradient
       id="linearGradient33859-8">
      <stop
         id="stop33867-8"
         offset="0"
         style="stop-color:#000000;stop-opacity:0;" />
      <stop
         style="stop-color:#333333;stop-opacity:0;"
         offset="0.77438962"
         id="stop33877-2" />
      <stop
         id="stop33879-4"
         offset="0.8131091"
         style="stop-color:#999999;stop-opacity:1;" />
      <stop
         style="stop-color:#ffffff;stop-opacity:1;"
         offset="0.92380953"
         id="stop33875-5" />
      <stop
         style="stop-color:#ffffff;stop-opacity:1;"
         offset="0.92380953"
         id="stop33873-5" />
      <stop
         style="stop-color:#dddddd;stop-opacity:1;"
         offset="1"
         id="stop33863-1" />
    </linearGradient>
    <radialGradient
       r="201"
       fy="435.36218"
       fx="502"
       cy="435.36218"
       cx="502"
       gradientUnits="userSpaceOnUse"
       id="radialGradient37448"
       xlink:href="#linearGradient33859-8"
       inkscape:collect="always" />
    <radialGradient
       r="201"
       fy="435.36218"
       fx="502"
       cy="435.36218"
       cx="502"
       gradientUnits="userSpaceOnUse"
       id="radialGradient37448-1"
       xlink:href="#linearGradient33859-8-1"
       inkscape:collect="always" />
    <linearGradient
       id="linearGradient33859-8-1">
      <stop
         id="stop33867-8-5"
         offset="0"
         style="stop-color:#000000;stop-opacity:0;" />
      <stop
         style="stop-color:#333333;stop-opacity:0;"
         offset="0.87988079"
         id="stop33877-2-2" />
      <stop
         id="stop33879-4-7"
         offset="0.89661556"
         style="stop-color:#999999;stop-opacity:1;" />
      <stop
         style="stop-color:#ffffff;stop-opacity:1;"
         offset="0.93927014"
         id="stop33875-5-6" />
      <stop
         style="stop-color:#ffffff;stop-opacity:1;"
         offset="0.96818912"
         id="stop33873-5-1" />
      <stop
         style="stop-color:#dddddd;stop-opacity:1;"
         offset="1"
         id="stop33863-1-4" />
    </linearGradient>
    <radialGradient
       r="201"
       fy="435.36218"
       fx="502"
       cy="435.36218"
       cx="502"
       gradientUnits="userSpaceOnUse"
       id="radialGradient37495"
       xlink:href="#linearGradient4262"
       inkscape:collect="always" />
    <radialGradient
       r="201"
       fy="435.36218"
       fx="502"
       cy="435.36218"
       cx="502"
       gradientTransform="matrix(0.96268657,0,0,0.96268657,-181.26865,177.23252)"
       gradientUnits="userSpaceOnUse"
       id="radialGradient37181-2"
       xlink:href="#linearGradient33859-3"
       inkscape:collect="always" />
    <linearGradient
       id="linearGradient33859-3">
      <stop
         id="stop33867-2"
         offset="0"
         style="stop-color:#000000;stop-opacity:0;" />
      <stop
         style="stop-color:#333333;stop-opacity:0;"
         offset="0.58999997"
         id="stop33877-21" />
      <stop
         id="stop33879-6"
         offset="0.60000002"
         style="stop-color:#999999;stop-opacity:1;" />
      <stop
         style="stop-color:#ffffff;stop-opacity:1;"
         offset="0.85000002"
         id="stop33875-8" />
      <stop
         style="stop-color:#ffffff;stop-opacity:1;"
         offset="0.89999998"
         id="stop33873-57" />
      <stop
         style="stop-color:#dddddd;stop-opacity:1;"
         offset="1"
         id="stop33863-6" />
    </linearGradient>
    <radialGradient
       r="201"
       fy="435.36218"
       fx="502"
       cy="435.36218"
       cx="502"
       gradientTransform="matrix(0.38122388,0,0,0.38122388,108.43652,106.75289)"
       gradientUnits="userSpaceOnUse"
       id="radialGradient37542"
       xlink:href="#linearGradient33859-3"
       inkscape:collect="always" />
  </defs>
  <sodipodi:namedview
     id="base"
     pagecolor="#ffffff"
     bordercolor="#666666"
     borderopacity="1.0"
     gridtolerance="10000"
     guidetolerance="10"
     objecttolerance="10"
     inkscape:pageopacity="0.0"
     inkscape:pageshadow="2"
     inkscape:zoom="1.4142136"
     inkscape:cx="-32.820296"
     inkscape:cy="150.8586"
     inkscape:document-units="px"
     inkscape:current-layer="layer5"
     showgrid="false"
     inkscape:window-width="1366"
     inkscape:window-height="705"
     inkscape:window-x="-8"
     inkscape:window-y="-8"
     inkscape:window-maximized="1"
     fit-margin-top="0"
     fit-margin-left="0"
     fit-margin-right="0"
     fit-margin-bottom="0" />
  <metadata
     id="metadata7">
    <rdf:RDF>
      <cc:Work
         rdf:about="">
        <dc:format>image/svg+xml</dc:format>
        <dc:type
           rdf:resource="http://purl.org/dc/dcmitype/StillImage" />
        <dc:title />
      </cc:Work>
    </rdf:RDF>
  </metadata>
  <g
     inkscape:groupmode="layer"
     id="layer2"
     inkscape:label="Background"
     style="display:inline"
     transform="translate(-178.9375,-157)">
    <rect
       style="fill:url(#linearGradient3521);fill-opacity:1;fill-rule:evenodd;stroke:url(#linearGradient3523);stroke-width:2.62141871;stroke-linecap:butt;stroke-linejoin:miter;stroke-miterlimit:4;stroke-opacity:1;stroke-dasharray:none"
       id="rect3261"
       width="236.95857"
       height="172.41058"
       x="180.23819"
       y="158.3054"
       inkscape:export-filename="C:\Documents and Settings\kuniaki\My Documents\Visual Studio 2008\Projects\DefiSubaruMonitor\描画SVG\AF_Bar\flowRoot2480-7.png"
       inkscape:export-xdpi="35.700001"
       inkscape:export-ydpi="35.700001" />
    <path
       sodipodi:type="arc"
       style="fill:#2b76cc;fill-opacity:1;stroke:none;filter:url(#filter3516)"
       id="path3279"
       sodipodi:cx="240"
       sodipodi:cy="380.93362"
       sodipodi:rx="225.71428"
       sodipodi:ry="91.428566"
       d="M 465.71428,380.93362 A 225.71428,91.428566 0 0 1 240,472.36219 225.71428,91.428566 0 0 1 14.285721,380.93362 225.71428,91.428566 0 0 1 240,289.50506 225.71428,91.428566 0 0 1 465.71428,380.93362 Z"
       transform="matrix(0.43801683,0,0,0.21155057,191.04954,224.20845)" />
    <flowRoot
       xml:space="preserve"
       id="flowRoot2484"
       style="font-size:24px;font-style:normal;font-variant:normal;font-weight:normal;font-stretch:normal;fill:#000000;fill-opacity:1;stroke:none;font-family:Subaru Meter Number;-inkscape-font-specification:Subaru Meter Number"
       transform="matrix(0.396,0,0,0.396,180.21891,36.568811)"><flowRegion
         id="flowRegion2486"><rect
           id="rect2488"
           width="94"
           height="77"
           x="248"
           y="619.36218" /></flowRegion><flowPara
         id="flowPara2490" /></flowRoot>  </g>
  <!--  
<g
     inkscape:groupmode="layer"
     id="layer1"
     inkscape:label="Texts"
     style="display:inline"
     transform="translate(-178.9375,-157)">
    <g
       transform="matrix(0.396,0,0,0.396,177.44691,43.300811)"
       style="font-size:65px;font-style:normal;font-variant:normal;font-weight:normal;font-stretch:normal;text-align:center;line-height:125%;writing-mode:lr-tb;text-anchor:middle;fill:#ffffff;fill-opacity:1;stroke:none;display:inline;font-family:Coolvetica;-inkscape-font-specification:Coolvetica"
       id="flowRoot2448">
      <path
         d="m 95.285645,596.59617 c -1.950595,4e-5 -3.39171,0.89929 -4.323349,2.69776 -0.931661,1.79853 -1.397486,4.66952 -1.397477,8.61297 l 0,6.43494 c -9e-6,4.07309 0.465816,7.00888 1.397477,8.80737 0.931639,1.79851 2.372754,2.69776 4.323349,2.69776 1.949242,0 3.379116,-0.94256 4.289627,-2.82769 0.910468,-1.88511 1.365718,-4.86421 1.365738,-8.9373 l 0,-6.04416 c -2e-5,-3.94345 -0.45527,-6.83626 -1.365738,-8.67843 -0.910511,-1.84211 -2.340385,-2.76318 -4.289627,-2.76322 z m -0.259858,-6.30401 c 2.122481,4e-5 4.03967,0.37924 5.751573,1.13762 1.71186,0.75845 3.17446,1.96086 4.38782,3.60725 1.2133,1.64646 2.13404,3.78052 2.76222,6.40221 0.62812,2.62174 0.9422,5.77407 0.94223,9.45701 -3e-5,3.72662 -0.31411,6.93351 -0.94223,9.62067 -0.62818,2.68718 -1.54892,4.88638 -2.76222,6.59759 -1.21336,1.71123 -2.67596,2.97877 -4.38782,3.80265 -1.711903,0.82387 -3.629092,1.2358 -5.751573,1.23581 -2.167472,-10e-6 -4.085322,-0.40103 -5.753555,-1.20308 -1.668251,-0.80206 -3.087215,-2.04811 -4.256897,-3.73818 -1.169691,-1.69006 -2.058032,-3.86743 -2.665024,-6.53213 -0.606996,-2.66468 -0.910493,-5.88215 -0.910492,-9.65241 -10e-7,-3.77022 0.303496,-6.96619 0.910492,-9.58793 0.606992,-2.62169 1.495333,-4.75575 2.665024,-6.40221 1.169682,-1.64639 2.588646,-2.8488 4.256897,-3.60725 1.668233,-0.75838 3.586083,-1.13758 5.753555,-1.13762 z"
         style=""
         id="path3344" />
    </g>
    <g
       transform="matrix(0.396,0,0,0.396,212.09617,-43.112321)"
       style="font-size:65px;font-style:normal;font-variant:normal;font-weight:normal;font-stretch:normal;text-align:end;line-height:125%;writing-mode:lr-tb;text-anchor:end;fill:#ffffff;fill-opacity:1;stroke:none;display:inline;font-family:Coolvetica;-inkscape-font-specification:Coolvetica"
       id="flowRoot2457">
      <path
         d="m 30.55481,638.17701 -27.1699528,0 c -3e-7,-1.8633 0.1626582,-3.57485 0.4879761,-5.13466 0.3253163,-1.55979 0.9319797,-3.10902 1.819992,-4.64767 0.8880072,-1.53863 2.1119135,-3.12026 3.6717224,-4.74487 1.5597963,-1.62459 3.5748443,-3.41218 6.0451503,-5.36278 1.299934,-1.03941 2.426642,-1.94924 3.380127,-2.72949 0.953455,-0.78021 1.722777,-1.50622 2.307969,-2.17804 0.585156,-0.67177 1.018581,-1.33265 1.300277,-1.98265 0.281658,-0.64995 0.422496,-1.36505 0.422516,-2.14531 -2e-5,-2.03651 -0.530974,-3.42308 -1.592865,-4.1597 -1.061927,-0.73656 -2.373113,-1.10486 -3.933563,-1.10489 -1.819674,3e-5 -3.206239,0.48768 -4.159699,1.46294 -0.953479,0.97532 -1.516833,2.84953 -1.690063,5.62263 l -7.5398255,0 c -7e-7,-2.12379 0.3140757,-4.04164 0.9422303,-5.75355 0.6281511,-1.71185 1.5164915,-3.16355 2.6650238,-4.35509 1.1485235,-1.19147 2.5245084,-2.1013 4.1279604,-2.72949 1.603434,-0.62812 3.358625,-0.94219 5.265579,-0.94223 1.819646,4e-5 3.542107,0.2384 5.167389,0.7151 1.625244,0.47677 3.055118,1.19188 4.289627,2.14531 1.234462,0.95351 2.220332,2.12352 2.957611,3.51005 0.737227,1.3866 1.105854,3.01154 1.105881,4.87481 -2.7e-5,1.64645 -0.195085,3.09814 -0.585175,4.35508 -0.390142,1.257 -1.040446,2.47032 -1.950912,3.63999 -0.910516,1.16971 -2.102353,2.36121 -3.575516,3.57452 -1.473205,1.21335 -3.271045,2.57842 -5.393524,4.09523 -0.780248,0.56337 -1.50626,1.18094 -2.17804,1.85272 -0.671806,0.67181 -1.25698,1.34327 -1.755523,2.01439 -0.498567,0.67114 -0.888683,1.28839 -1.17035,1.85173 -0.281687,0.56337 -0.443684,1.0401 -0.485992,1.43021 l 17.223969,0 z"
         style=""
         id="path3339" />
      <path
         d="m 57.970734,604.83198 -18.005524,0 0,10.72556 c 1.040741,-1.12669 2.254398,-1.8851 3.640976,-2.27524 1.386552,-0.39009 2.816426,-0.58515 4.289627,-0.58518 1.602764,3e-5 3.108348,0.29262 4.516754,0.87777 1.408363,0.58519 2.6326,1.39783 3.672714,2.43789 1.040064,1.04011 1.863605,2.27493 2.470627,3.70446 0.606966,1.42956 0.910463,2.98936 0.910492,4.67941 -2.9e-5,2.29707 -0.335925,4.36634 -1.00769,6.20781 -0.671821,1.84149 -1.614381,3.39071 -2.827683,4.64767 -1.213351,1.25697 -2.665046,2.22135 -4.355087,2.89315 -1.690082,0.67179 -3.553382,1.00768 -5.589905,1.00769 -1.819674,-10e-6 -3.520316,-0.28168 -5.101929,-0.84504 -1.581632,-0.56335 -2.968527,-1.36507 -4.16069,-2.40516 -1.192173,-1.04009 -2.145643,-2.27524 -2.860412,-3.70545 -0.714775,-1.4302 -1.115801,-3.01215 -1.20308,-4.74586 l 7.801667,0 c 0.173228,1.64643 0.725672,2.94638 1.657333,3.89984 0.931639,0.95348 2.090416,1.43021 3.476334,1.43021 1.863285,0 3.380109,-0.72568 4.550476,-2.17705 1.170329,-1.45136 1.755503,-3.28193 1.755523,-5.49172 -2e-5,-1.86328 -0.585194,-3.31498 -1.755523,-4.35508 -1.170367,-1.04008 -2.556932,-1.56012 -4.159699,-1.56014 -2.297071,2e-5 -4.008952,1.08309 -5.13565,3.24921 l -8.190461,0 0,-24.24408 25.61081,0 z"
         style=""
         id="path3341" />
    </g>
    <g
       transform="matrix(0.396,0,0,0.396,261.87869,-72.020317)"
       style="font-size:65px;font-style:normal;font-variant:normal;font-weight:normal;font-stretch:normal;text-align:center;line-height:125%;writing-mode:lr-tb;text-anchor:middle;fill:#ffffff;fill-opacity:1;stroke:none;display:inline;font-family:Coolvetica;-inkscape-font-specification:Coolvetica"
       id="flowRoot2460">
      <path
         d="m 93.470734,597.83198 -18.005524,0 0,10.72556 c 1.040741,-1.12669 2.254398,-1.8851 3.640976,-2.27524 1.386552,-0.39009 2.816426,-0.58515 4.289627,-0.58518 1.602764,3e-5 3.108348,0.29262 4.516754,0.87777 1.408363,0.58519 2.6326,1.39783 3.672714,2.43789 1.040064,1.04011 1.863605,2.27493 2.470627,3.70446 0.606966,1.42956 0.910463,2.98936 0.910492,4.67941 -2.9e-5,2.29707 -0.335925,4.36634 -1.00769,6.20781 -0.671821,1.84149 -1.614381,3.39071 -2.827683,4.64767 -1.213351,1.25697 -2.665046,2.22135 -4.355087,2.89315 -1.690082,0.67179 -3.553382,1.00768 -5.589905,1.00769 -1.819674,-10e-6 -3.520316,-0.28168 -5.101929,-0.84504 -1.581632,-0.56335 -2.968527,-1.36507 -4.16069,-2.40516 -1.192173,-1.04009 -2.145643,-2.27524 -2.860412,-3.70545 -0.714775,-1.4302 -1.115801,-3.01215 -1.20308,-4.74586 l 7.801667,0 c 0.173228,1.64643 0.725672,2.94638 1.657333,3.89984 0.931639,0.95348 2.090416,1.43021 3.476334,1.43021 1.863285,0 3.380109,-0.72568 4.550476,-2.17705 1.170329,-1.45136 1.755503,-3.28193 1.755523,-5.49172 -2e-5,-1.86328 -0.585194,-3.31498 -1.755523,-4.35508 -1.170367,-1.04008 -2.556932,-1.56012 -4.159699,-1.56014 -2.297071,2e-5 -4.008952,1.08309 -5.13565,3.24921 l -8.190461,0 0,-24.24408 25.61081,0 z"
         style=""
         id="path3334" />
      <path
         d="m 110.38525,596.59617 c -1.95059,4e-5 -3.39171,0.89929 -4.32335,2.69776 -0.93166,1.79853 -1.39748,4.66952 -1.39747,8.61297 l 0,6.43494 c -10e-6,4.07309 0.46581,7.00888 1.39747,8.80737 0.93164,1.79851 2.37276,2.69776 4.32335,2.69776 1.94925,0 3.37912,-0.94256 4.28963,-2.82769 0.91047,-1.88511 1.36572,-4.86421 1.36574,-8.9373 l 0,-6.04416 c -2e-5,-3.94345 -0.45527,-6.83626 -1.36574,-8.67843 -0.91051,-1.84211 -2.34038,-2.76318 -4.28963,-2.76322 z m -0.25985,-6.30401 c 2.12248,4e-5 4.03967,0.37924 5.75157,1.13762 1.71186,0.75845 3.17446,1.96086 4.38782,3.60725 1.2133,1.64646 2.13404,3.78052 2.76222,6.40221 0.62812,2.62174 0.9422,5.77407 0.94223,9.45701 -3e-5,3.72662 -0.31411,6.93351 -0.94223,9.62067 -0.62818,2.68718 -1.54892,4.88638 -2.76222,6.59759 -1.21336,1.71123 -2.67596,2.97877 -4.38782,3.80265 -1.7119,0.82387 -3.62909,1.2358 -5.75157,1.23581 -2.16748,-10e-6 -4.08533,-0.40103 -5.75356,-1.20308 -1.66825,-0.80206 -3.08721,-2.04811 -4.2569,-3.73818 -1.169687,-1.69006 -2.058027,-3.86743 -2.665019,-6.53213 -0.606996,-2.66468 -0.910493,-5.88215 -0.910492,-9.65241 -10e-7,-3.77022 0.303496,-6.96619 0.910492,-9.58793 0.606992,-2.62169 1.495332,-4.75575 2.665019,-6.40221 1.16969,-1.64639 2.58865,-2.8488 4.2569,-3.60725 1.66823,-0.75838 3.58608,-1.13758 5.75356,-1.13762 z"
         style=""
         id="path3336" />
    </g>
    <g
       transform="matrix(0.396,0,0,0.396,360.32389,-44.696317)"
       style="font-size:65px;font-style:normal;font-variant:normal;font-weight:normal;font-stretch:normal;text-align:start;line-height:125%;writing-mode:lr-tb;text-anchor:start;fill:#ffffff;fill-opacity:1;stroke:none;display:inline;font-family:Coolvetica;-inkscape-font-specification:Coolvetica"
       id="flowRoot2468">
      <path
         d="m 37.209381,597.24681 c -4.592817,4.98294 -8.070139,10.33447 -10.431976,16.05461 -2.361873,5.72017 -3.694218,11.6787 -3.99704,17.87559 l -8.05954,0 c 0.476068,-5.85041 1.862302,-11.60297 4.158707,-17.25769 2.296385,-5.65468 5.589559,-10.90868 9.879532,-15.76202 l -19.4992068,0 0,-6.95465 27.9495238,0 z"
         style=""
         id="path3329" />
      <path
         d="m 64.607452,597.83198 -18.005523,0 0,10.72556 c 1.040741,-1.12669 2.254398,-1.8851 3.640976,-2.27524 1.386552,-0.39009 2.816426,-0.58515 4.289627,-0.58518 1.602764,3e-5 3.108347,0.29262 4.516754,0.87777 1.408363,0.58519 2.6326,1.39783 3.672714,2.43789 1.040064,1.04011 1.863605,2.27493 2.470627,3.70446 0.606966,1.42956 0.910463,2.98936 0.910492,4.67941 -2.9e-5,2.29707 -0.335925,4.36634 -1.007691,6.20781 -0.67182,1.84149 -1.61438,3.39071 -2.827682,4.64767 -1.213352,1.25697 -2.665046,2.22135 -4.355087,2.89315 -1.690083,0.67179 -3.553382,1.00768 -5.589905,1.00769 -1.819675,-10e-6 -3.520316,-0.28168 -5.101929,-0.84504 -1.581632,-0.56335 -2.968528,-1.36507 -4.16069,-2.40516 -1.192174,-1.04009 -2.145644,-2.27524 -2.860413,-3.70545 -0.714774,-1.4302 -1.1158,-3.01215 -1.203079,-4.74586 l 7.801666,0 c 0.173229,1.64643 0.725673,2.94638 1.657334,3.89984 0.931639,0.95348 2.090415,1.43021 3.476333,1.43021 1.863286,0 3.380109,-0.72568 4.550476,-2.17705 1.170329,-1.45136 1.755503,-3.28193 1.755524,-5.49172 -2.1e-5,-1.86328 -0.585195,-3.31498 -1.755524,-4.35508 -1.170367,-1.04008 -2.556931,-1.56012 -4.159698,-1.56014 -2.297071,2e-5 -4.008953,1.08309 -5.135651,3.24921 l -8.19046,0 0,-24.24408 25.610809,0 z"
         style=""
         id="path3331" />
    </g>
    <g
       transform="matrix(0.396,0,0,0.396,344.49496,42.423683)"
       style="font-size:65px;font-style:normal;font-variant:normal;font-weight:normal;font-stretch:normal;text-align:center;line-height:125%;writing-mode:lr-tb;text-anchor:middle;fill:#ffffff;fill-opacity:1;stroke:none;display:inline;font-family:Coolvetica;-inkscape-font-specification:Coolvetica"
       id="flowRoot2476">
      <path
         d="m 77.227539,631.17701 -7.799683,0 0,-27.23541 -8.19046,0 0,-5.45898 c 1.690062,3e-5 3.119936,-0.14081 4.289627,-0.42252 1.169683,-0.28164 2.133732,-0.71507 2.892151,-1.30028 0.758405,-0.58514 1.321759,-1.30024 1.690064,-2.14531 0.368286,-0.84499 0.617895,-1.85268 0.748825,-3.02307 l 6.369476,0 z"
         style=""
         id="path3322" />
      <path
         d="m 93.509277,596.59617 c -1.950594,4e-5 -3.391709,0.89929 -4.323349,2.69776 -0.93166,1.79853 -1.397485,4.66952 -1.397476,8.61297 l 0,6.43494 c -9e-6,4.07309 0.465816,7.00888 1.397476,8.80737 0.93164,1.79851 2.372755,2.69776 4.323349,2.69776 1.949243,0 3.379117,-0.94256 4.289627,-2.82769 0.910472,-1.88511 1.365718,-4.86421 1.365738,-8.9373 l 0,-6.04416 c -2e-5,-3.94345 -0.455266,-6.83626 -1.365738,-8.67843 -0.91051,-1.84211 -2.340384,-2.76318 -4.289627,-2.76322 z m -0.259857,-6.30401 c 2.122481,4e-5 4.03967,0.37924 5.751572,1.13762 1.711858,0.75845 3.174468,1.96086 4.387818,3.60725 1.2133,1.64646 2.13404,3.78052 2.76222,6.40221 0.62813,2.62174 0.9422,5.77407 0.94223,9.45701 -3e-5,3.72662 -0.3141,6.93351 -0.94223,9.62067 -0.62818,2.68718 -1.54892,4.88638 -2.76222,6.59759 -1.21335,1.71123 -2.67596,2.97877 -4.387818,3.80265 -1.711902,0.82387 -3.629091,1.2358 -5.751572,1.23581 -2.167472,-10e-6 -4.085322,-0.40103 -5.753555,-1.20308 -1.668251,-0.80206 -3.087215,-2.04811 -4.256897,-3.73818 -1.169691,-1.69006 -2.058032,-3.86743 -2.665024,-6.53213 -0.606996,-2.66468 -0.910493,-5.88215 -0.910492,-9.65241 -1e-6,-3.77022 0.303496,-6.96619 0.910492,-9.58793 0.606992,-2.62169 1.495333,-4.75575 2.665024,-6.40221 1.169682,-1.64639 2.588646,-2.8488 4.256897,-3.60725 1.668233,-0.75838 3.586083,-1.13758 5.753555,-1.13762 z"
         style=""
         id="path3324" />
      <path
         d="m 122.7085,596.59617 c -1.9506,4e-5 -3.39171,0.89929 -4.32335,2.69776 -0.93166,1.79853 -1.39749,4.66952 -1.39748,8.61297 l 0,6.43494 c -10e-6,4.07309 0.46582,7.00888 1.39748,8.80737 0.93164,1.79851 2.37275,2.69776 4.32335,2.69776 1.94924,0 3.37911,-0.94256 4.28962,-2.82769 0.91048,-1.88511 1.36572,-4.86421 1.36574,-8.9373 l 0,-6.04416 c -2e-5,-3.94345 -0.45526,-6.83626 -1.36574,-8.67843 -0.91051,-1.84211 -2.34038,-2.76318 -4.28962,-2.76322 z m -0.25986,-6.30401 c 2.12248,4e-5 4.03967,0.37924 5.75157,1.13762 1.71186,0.75845 3.17447,1.96086 4.38782,3.60725 1.2133,1.64646 2.13404,3.78052 2.76222,6.40221 0.62813,2.62174 0.9422,5.77407 0.94223,9.45701 -3e-5,3.72662 -0.3141,6.93351 -0.94223,9.62067 -0.62818,2.68718 -1.54892,4.88638 -2.76222,6.59759 -1.21335,1.71123 -2.67596,2.97877 -4.38782,3.80265 -1.7119,0.82387 -3.62909,1.2358 -5.75157,1.23581 -2.16747,-10e-6 -4.08532,-0.40103 -5.75356,-1.20308 -1.66825,-0.80206 -3.08721,-2.04811 -4.25689,-3.73818 -1.16969,-1.69006 -2.05804,-3.86743 -2.66503,-6.53213 -0.60699,-2.66468 -0.91049,-5.88215 -0.91049,-9.65241 0,-3.77022 0.3035,-6.96619 0.91049,-9.58793 0.60699,-2.62169 1.49534,-4.75575 2.66503,-6.40221 1.16968,-1.64639 2.58864,-2.8488 4.25689,-3.60725 1.66824,-0.75838 3.58609,-1.13758 5.75356,-1.13762 z"
         style=""
         id="path3326" />
    </g>
    <g
       transform="matrix(0.35163105,0,0,0.35163105,228.30106,100.77511)"
       style="font-size:64px;font-style:normal;font-variant:normal;font-weight:normal;font-stretch:normal;text-align:center;line-height:125%;writing-mode:lr-tb;text-anchor:middle;fill:#ffffff;fill-opacity:1;stroke:none;display:inline;font-family:Coolvetica;-inkscape-font-specification:Coolvetica"
       id="flowRoot2480">
      <path
         d="m 104.19336,597.84049 -11.904298,0 0,32.44726 -8.255859,0 0,-32.44726 -11.839844,0 0,-6.91211 32.000001,0 z"
         style=""
         id="path3302" />
      <path
         d="m 137.6543,630.28775 -8.25586,0 0,-17.66406 -15.36133,0 0,17.66406 -8.25586,0 0,-39.35937 8.25586,0 0,14.84765 15.36133,0 0,-14.84765 8.25586,0 z"
         style=""
         id="path3304" />
      <path
         d="m 148.28125,597.77603 0,10.4961 10.24023,0 c 1.79165,2e-5 3.24217,-0.50128 4.35157,-1.50391 1.10935,-1.00258 1.66403,-2.25062 1.66406,-3.74414 -3e-5,-1.53643 -0.54397,-2.79522 -1.63184,-3.77637 -1.08791,-0.98109 -2.46389,-1.47164 -4.12793,-1.47168 z m 23.04102,32.51172 -8.06446,0 0,-10.11133 c -2e-5,-1.92056 -0.48016,-3.28612 -1.44043,-4.09668 -0.96031,-0.81053 -2.54982,-1.2158 -4.76855,-1.21582 l -8.76758,0 0,15.42383 -8,0 0,-39.35937 19.96875,0 c 1.83461,4e-5 3.50909,0.2878 5.02344,0.86328 1.51429,0.57556 2.8154,1.37536 3.90332,2.39941 1.08786,1.02413 1.93063,2.22953 2.52832,3.61621 0.59762,1.38675 0.89645,2.89066 0.89648,4.51172 -3e-5,2.17711 -0.53323,4.06546 -1.59961,5.66504 -1.06643,1.59963 -2.55992,2.76206 -4.48047,3.48731 1.74867,0.5547 2.98598,1.39747 3.71192,2.52832 0.72588,1.13087 1.08883,2.84799 1.08887,5.15136 z"
         style=""
         id="path3306" />
      <path
         d="m 181.96094,611.15103 c -1e-5,4.65106 0.92805,8.05405 2.78418,10.20899 1.8561,2.15495 4.51203,3.23242 7.96777,3.23242 1.49347,0 2.89093,-0.26692 4.19238,-0.80078 1.30141,-0.53385 2.43227,-1.34472 3.39258,-2.43262 0.96026,-1.08788 1.71775,-2.48501 2.27246,-4.19141 0.55466,-1.70636 0.832,-3.71189 0.83203,-6.0166 -3e-5,-4.64971 -0.91734,-8.17998 -2.75195,-10.59082 -1.83466,-2.41077 -4.48049,-3.61617 -7.9375,-3.61621 -3.45574,4e-5 -6.11167,1.20544 -7.96777,3.61621 -1.85613,2.41084 -2.78419,5.94111 -2.78418,10.59082 z m 10.75195,-21.5039 c 6.18747,4e-5 10.87041,1.85616 14.04883,5.56836 3.17835,3.71227 4.76754,9.02411 4.76758,15.93554 -4e-5,6.95574 -1.56807,12.10808 -4.7041,15.45703 -3.1361,3.34896 -7.8402,5.02344 -14.11231,5.02344 -6.27215,0 -10.98666,-1.72786 -14.14355,-5.18359 -3.15691,-3.45572 -4.73536,-8.61848 -4.73536,-15.48828 0,-3.32811 0.41602,-6.31476 1.24805,-8.95996 0.83203,-2.64516 2.04785,-4.87432 3.64746,-6.6875 1.5996,-1.81312 3.57291,-3.21058 5.91992,-4.19239 2.347,-0.98173 5.03482,-1.47261 8.06348,-1.47265 z"
         style=""
         id="path3308" />
      <path
         d="m 244.69336,597.84049 -11.9043,0 0,32.44726 -8.25586,0 0,-32.44726 -11.83984,0 0,-6.91211 32,0 z"
         style=""
         id="path3310" />
      <path
         d="m 277.19336,597.84049 -11.9043,0 0,32.44726 -8.25586,0 0,-32.44726 -11.83984,0 0,-6.91211 32,0 z"
         style=""
         id="path3312" />
      <path
         d="m 287.03711,623.11978 19.51953,0 0,7.16797 -27.77539,0 0,-39.35937 8.25586,0 z"
         style=""
         id="path3314" />
      <path
         d="m 337.08398,597.84049 -20.92773,0 0,8.38281 19.26367,0 0,6.91211 -19.26367,0 0,10.17578 21.88867,0 0,6.97656 -29.88867,0 0,-39.35937 28.92773,0 z"
         style=""
         id="path3316" />
    </g>
    <g
       transform="matrix(0.35163105,0,0,0.35163105,228.30106,83.351111)"
       style="font-size:64px;font-style:normal;font-variant:normal;font-weight:normal;font-stretch:normal;text-align:center;line-height:125%;writing-mode:lr-tb;text-anchor:middle;fill:#ffffff;fill-opacity:1;stroke:none;display:inline;font-family:Coolvetica;-inkscape-font-specification:Coolvetica"
       id="flowRoot2480-9">
      <path
         d="m 192.62891,597.07095 c -1.27996,4e-5 -2.34669,0.41605 -3.2002,1.24805 -0.85352,0.83206 -1.28028,1.88805 -1.28027,3.16797 -1e-5,1.27998 0.41601,2.2829 1.24804,3.00879 0.83203,0.72594 1.88802,1.08889 3.16797,1.08887 1.23697,2e-5 2.26073,-0.37335 3.07129,-1.12012 0.81053,-0.74672 1.21581,-1.73923 1.21582,-2.97754 -1e-5,-1.40752 -0.42644,-2.49541 -1.27929,-3.26367 -0.85288,-0.7682 -1.834,-1.15231 -2.94336,-1.15235 z m 29.95117,24.12891 c -4e-5,-1.45051 -0.4268,-2.57063 -1.28028,-3.36035 -0.85355,-0.7897 -1.87731,-1.18456 -3.07128,-1.18457 -1.27999,10e-6 -2.31449,0.42677 -3.10352,1.28027 -0.7891,0.85353 -1.18363,1.89878 -1.18359,3.13574 -4e-5,1.23829 0.4264,2.23081 1.27929,2.97754 0.85283,0.74675 1.89841,1.12013 3.13672,1.12012 1.23694,1e-5 2.23922,-0.35221 3.00684,-1.05664 0.76754,-0.70442 1.17281,-1.67512 1.21582,-2.91211 z m -26.24024,10.17578 -3.96679,0 21.75976,-40.06445 4.03125,0 z m 6.20899,-29.88867 c -2e-5,1.45185 -0.25621,2.77509 -0.76856,3.96973 -0.51239,1.19468 -1.21649,2.21844 -2.1123,3.07129 -0.89585,0.85288 -1.9411,1.51401 -3.13574,1.98339 -1.19468,0.46942 -2.49578,0.70413 -3.90332,0.70411 -1.45053,2e-5 -2.78387,-0.24543 -4,-0.73633 -1.21616,-0.49087 -2.27214,-1.18423 -3.16797,-2.08008 -0.89584,-0.89581 -1.59994,-1.97296 -2.11231,-3.23145 -0.51237,-1.25843 -0.76855,-2.65589 -0.76855,-4.19238 0,-1.27992 0.2666,-2.50648 0.7998,-3.67969 0.5332,-1.17314 1.25846,-2.19723 2.17578,-3.07226 0.91732,-0.87496 1.97331,-1.57907 3.16797,-2.11231 1.19466,-0.53316 2.43196,-0.79976 3.71192,-0.7998 1.3229,4e-5 2.59243,0.27738 3.80859,0.83203 1.21613,0.55473 2.2936,1.30147 3.23242,2.24023 0.93879,0.93884 1.68553,2.02706 2.24024,3.26465 0.55466,1.23766 0.83201,2.51729 0.83203,3.83887 z m 25.66406,19.83984 c -0.043,1.3659 -0.32036,2.62501 -0.83203,3.77735 -0.51176,1.15235 -1.21587,2.15495 -2.11231,3.00781 -0.89652,0.85287 -1.94209,1.52474 -3.13671,2.01563 -1.1947,0.49088 -2.49581,0.73632 -3.90332,0.73632 -1.40759,0 -2.7087,-0.24544 -3.90332,-0.73632 -1.1947,-0.49089 -2.24027,-1.18425 -3.13672,-2.08008 -0.89652,-0.89583 -1.60062,-1.98372 -2.11231,-3.26367 -0.51174,-1.27995 -0.7676,-2.70963 -0.76758,-4.28907 -2e-5,-1.36457 0.26658,-2.62303 0.79981,-3.77539 0.53317,-1.15233 1.24769,-2.14451 2.14355,-2.97656 0.89581,-0.83201 1.94105,-1.4824 3.13575,-1.95117 1.19462,-0.46873 2.4749,-0.70311 3.84082,-0.70313 1.32287,2e-5 2.5924,0.24514 3.80859,0.73535 1.2161,0.49026 2.28283,1.18362 3.20019,2.08008 0.91728,0.8965 1.64254,1.97398 2.17579,3.23242 0.53315,1.25848 0.79975,2.65529 0.7998,4.19043 z"
         style=""
         id="path3319" />
    </g>
  </g>
-->
  <g
     inkscape:groupmode="layer"
     id="layer5"
     inkscape:label="Redzone_Bar"
     style="display:inline"
     transform="translate(-178.9375,-157)">
    <path
       sodipodi:type="arc"
       style="fill:url(#radialGradient37495);fill-opacity:1;stroke:none;display:inline"
       id="path33085-7"
       sodipodi:cx="502"
       sodipodi:cy="435.36218"
       sodipodi:rx="201"
       sodipodi:ry="201"
       d="m 703,435.36218 a 201,201 0 0 1 -201,201 201,201 0 0 1 -201,-201 201,201 0 0 1 201,-201 201,201 0 0 1 201,201 z"
       transform="matrix(0.44297455,0,0,0.44297455,77.43768,80.665867)" />
  </g>
  <g
     inkscape:groupmode="layer"
     id="layer4"
     inkscape:label="Grid"
     style="display:inline"
     transform="translate(-178.9375,-157)">
    <path
       style="fill:#000000;fill-opacity:0.14492756;stroke:url(#linearGradient3183);stroke-width:1.18799996;stroke-linecap:butt;stroke-linejoin:miter;stroke-miterlimit:0;stroke-opacity:1;stroke-dasharray:none;display:inline"
       d="m 299.41491,183.50956 c -49.61979,0 -89.9087,40.22286 -90.01575,89.81775 l 11.8305,0 c 0.10721,-43.06423 35.09606,-77.98725 78.18525,-77.98725 43.0892,0 78.07804,34.923 78.18525,77.98725 l 11.8305,0 c -0.10705,-49.59488 -40.39597,-89.81774 -90.01575,-89.81775 z"
       id="path2568"
       inkscape:export-filename="C:\Documents and Settings\kuniaki\My Documents\Visual Studio 2008\Projects\DefiSubaruMonitor\描画SVG\AF_Bar\flowRoot2480-7.png"
       inkscape:export-xdpi="35.700001"
       inkscape:export-ydpi="35.700001"
       inkscape:connector-curvature="0" />
    <rect
       style="fill:#ffffff;fill-opacity:1;stroke:none;display:inline"
       id="rect3354"
       width="12.276"
       height="1.98"
       x="209.12691"
       y="271.54025"
       ry="0"
       inkscape:export-filename="C:\Documents and Settings\kuniaki\My Documents\Visual Studio 2008\Projects\DefiSubaruMonitor\描画SVG\AF_Bar\flowRoot2480-7.png"
       inkscape:export-xdpi="35.700001"
       inkscape:export-ydpi="35.700001" />
    <rect
       style="fill:#ffffff;fill-opacity:1;stroke:none;display:inline"
       id="rect3356"
       width="12.276"
       height="1.98"
       x="377.22891"
       y="271.54025"
       ry="0"
       inkscape:export-filename="C:\Documents and Settings\kuniaki\My Documents\Visual Studio 2008\Projects\DefiSubaruMonitor\描画SVG\AF_Bar\flowRoot2480-7.png"
       inkscape:export-xdpi="35.700001"
       inkscape:export-ydpi="35.700001" />
    <rect
       style="fill:#ffffff;fill-opacity:1;stroke:none;display:inline"
       id="rect3360"
       width="12.276"
       height="1.98"
       x="-194.89445"
       y="298.3259"
       ry="0"
       transform="matrix(0,-1,1,0,0,0)"
       inkscape:export-filename="C:\Documents and Settings\kuniaki\My Documents\Visual Studio 2008\Projects\DefiSubaruMonitor\描画SVG\AF_Bar\flowRoot2480-7.png"
       inkscape:export-xdpi="35.700001"
       inkscape:export-ydpi="35.700001" />
    <rect
       style="fill:#ffffff;fill-opacity:1;stroke:none;display:inline"
       id="rect3364"
       width="12.276"
       height="1.98"
       x="96.853333"
       y="403.3663"
       ry="0"
       transform="matrix(0.70710678,-0.70710678,0.70710678,0.70710678,0,0)"
       inkscape:export-filename="C:\Documents and Settings\kuniaki\My Documents\Visual Studio 2008\Projects\DefiSubaruMonitor\描画SVG\AF_Bar\flowRoot2480-7.png"
       inkscape:export-xdpi="35.700001"
       inkscape:export-ydpi="35.700001" />
    <rect
       style="fill:#ffffff;fill-opacity:1;stroke:none;display:inline"
       id="rect3366"
       width="12.276"
       height="1.98"
       x="314.1673"
       y="-19.93033"
       ry="0"
       transform="matrix(0.70710678,0.70710678,-0.70710678,0.70710678,0,0)"
       inkscape:export-filename="C:\Documents and Settings\kuniaki\My Documents\Visual Studio 2008\Projects\DefiSubaruMonitor\描画SVG\AF_Bar\flowRoot2480-7.png"
       inkscape:export-xdpi="35.700001"
       inkscape:export-ydpi="35.700001" />
    <rect
       style="fill:#ffffff;fill-opacity:1;stroke:none;display:inline"
       id="rect3370"
       width="6.2049818"
       height="1.0008036"
       x="296.52151"
       y="136.7036"
       ry="0"
       transform="matrix(0.92387954,0.38268342,-0.38268342,0.92387954,0,0)"
       inkscape:export-filename="C:\Documents and Settings\kuniaki\My Documents\Visual Studio 2008\Projects\DefiSubaruMonitor\描画SVG\AF_Bar\flowRoot2480-7.png"
       inkscape:export-xdpi="35.700001"
       inkscape:export-ydpi="35.700001" />
    <rect
       style="fill:#ffffff;fill-opacity:1;stroke:none;display:inline"
       id="rect3374"
       width="6.2049813"
       height="1.0008036"
       x="281.97165"
       y="-172.8309"
       ry="0"
       transform="matrix(0.38268342,0.92387954,-0.92387954,0.38268342,0,0)"
       inkscape:export-filename="C:\Documents and Settings\kuniaki\My Documents\Visual Studio 2008\Projects\DefiSubaruMonitor\描画SVG\AF_Bar\flowRoot2480-7.png"
       inkscape:export-xdpi="35.700001"
       inkscape:export-ydpi="35.700001" />
    <rect
       style="fill:#ffffff;fill-opacity:1;stroke:none;display:inline"
       id="rect3378"
       width="6.2049813"
       height="1.0008036"
       x="52.809391"
       y="-381.4165"
       ry="0"
       transform="matrix(-0.38268342,0.92387954,-0.92387954,-0.38268342,0,0)"
       inkscape:export-filename="C:\Documents and Settings\kuniaki\My Documents\Visual Studio 2008\Projects\DefiSubaruMonitor\描画SVG\AF_Bar\flowRoot2480-7.png"
       inkscape:export-xdpi="35.700001"
       inkscape:export-ydpi="35.700001" />
    <rect
       style="fill:#ffffff;fill-opacity:1;stroke:none;display:inline"
       id="rect3382"
       width="6.2049813"
       height="1.0008036"
       x="-256.7251"
       y="-366.86664"
       ry="0"
       transform="matrix(-0.92387954,0.38268342,-0.38268342,-0.92387954,0,0)"
       inkscape:export-filename="C:\Documents and Settings\kuniaki\My Documents\Visual Studio 2008\Projects\DefiSubaruMonitor\描画SVG\AF_Bar\flowRoot2480-7.png"
       inkscape:export-xdpi="35.700001"
       inkscape:export-ydpi="35.700001" />
    <rect
       style="fill:#ffffff;fill-opacity:1;stroke:none;display:inline;filter:url(#filter3234-5)"
       id="rect2446"
       width="31"
       height="5"
       x="76.358757"
       y="289.48306"
       ry="0"
       inkscape:export-filename="C:\Documents and Settings\kuniaki\My Documents\Visual Studio 2008\Projects\DefiSubaruMonitor\描画SVG\AF_Bar\flowRoot2480-7.png"
       inkscape:export-xdpi="35.700001"
       inkscape:export-ydpi="35.700001"
       transform="matrix(0.396,0,0,0.396,178.88884,156.90495)" />
    <rect
       style="fill:#ffffff;fill-opacity:1;stroke:none;display:inline;filter:url(#filter3238-1)"
       id="rect2448"
       width="31"
       height="5"
       x="500.85876"
       y="289.48306"
       ry="0"
       inkscape:export-filename="C:\Documents and Settings\kuniaki\My Documents\Visual Studio 2008\Projects\DefiSubaruMonitor\描画SVG\AF_Bar\flowRoot2480-7.png"
       inkscape:export-xdpi="35.700001"
       inkscape:export-ydpi="35.700001"
       transform="matrix(0.396,0,0,0.396,178.88884,156.90495)" />
    <rect
       style="fill:#ffffff;fill-opacity:1;stroke:none;display:inline;filter:url(#filter3242-1)"
       id="rect2450"
       width="31"
       height="5"
       x="-399.81223"
       y="298.25"
       ry="0"
       transform="matrix(0,-0.396,0.396,0,180.21891,36.568807)"
       inkscape:export-filename="C:\Documents and Settings\kuniaki\My Documents\Visual Studio 2008\Projects\DefiSubaruMonitor\描画SVG\AF_Bar\flowRoot2480-7.png"
       inkscape:export-xdpi="35.700001"
       inkscape:export-ydpi="35.700001" />
    <rect
       style="fill:#ffffff;fill-opacity:1;stroke:none;display:inline;filter:url(#filter3246-5)"
       id="rect2452"
       width="31"
       height="5"
       x="-11.925825"
       y="631.50055"
       ry="0"
       transform="matrix(0.28001429,-0.28001429,0.28001429,0.28001429,180.21891,36.568807)"
       inkscape:export-filename="C:\Documents and Settings\kuniaki\My Documents\Visual Studio 2008\Projects\DefiSubaruMonitor\描画SVG\AF_Bar\flowRoot2480-7.png"
       inkscape:export-xdpi="35.700001"
       inkscape:export-ydpi="35.700001" />
    <rect
       style="fill:#ffffff;fill-opacity:1;stroke:none;display:inline;filter:url(#filter3250-2)"
       id="rect2454"
       width="31"
       height="5"
       x="406.25055"
       y="206.17583"
       ry="0"
       transform="matrix(0.28001429,0.28001429,-0.28001429,0.28001429,180.21891,36.568807)"
       inkscape:export-filename="C:\Documents and Settings\kuniaki\My Documents\Visual Studio 2008\Projects\DefiSubaruMonitor\描画SVG\AF_Bar\flowRoot2480-7.png"
       inkscape:export-xdpi="35.700001"
       inkscape:export-ydpi="35.700001" />
    <rect
       style="fill:#ffffff;fill-opacity:1;stroke:none;display:inline;filter:url(#filter3254-8)"
       id="rect2456"
       width="15.669147"
       height="2.5272818"
       x="292.99667"
       y="434.05356"
       ry="0"
       transform="matrix(0.36585628,0.15154263,-0.15154263,0.36585628,180.21891,36.568807)"
       inkscape:export-filename="C:\Documents and Settings\kuniaki\My Documents\Visual Studio 2008\Projects\DefiSubaruMonitor\描画SVG\AF_Bar\flowRoot2480-7.png"
       inkscape:export-xdpi="35.700001"
       inkscape:export-ydpi="35.700001" />
    <rect
       style="fill:#ffffff;fill-opacity:1;stroke:none;display:inline;filter:url(#filter3258-9)"
       id="rect2458"
       width="15.669146"
       height="2.5272818"
       x="452.57495"
       y="-51.32478"
       ry="0"
       transform="matrix(0.15154263,0.36585628,-0.36585628,0.15154263,180.21891,36.568807)"
       inkscape:export-filename="C:\Documents and Settings\kuniaki\My Documents\Visual Studio 2008\Projects\DefiSubaruMonitor\描画SVG\AF_Bar\flowRoot2480-7.png"
       inkscape:export-xdpi="35.700001"
       inkscape:export-ydpi="35.700001" />
    <rect
       style="fill:#ffffff;fill-opacity:1;stroke:none;display:inline;filter:url(#filter3262-4)"
       id="rect2460"
       width="15.669146"
       height="2.5272818"
       x="222.19952"
       y="-507.37796"
       ry="0"
       transform="matrix(-0.15154263,0.36585628,-0.36585628,-0.15154263,180.21891,36.568807)"
       inkscape:export-filename="C:\Documents and Settings\kuniaki\My Documents\Visual Studio 2008\Projects\DefiSubaruMonitor\描画SVG\AF_Bar\flowRoot2480-7.png"
       inkscape:export-xdpi="35.700001"
       inkscape:export-ydpi="35.700001" />
    <rect
       style="fill:#ffffff;fill-opacity:1;stroke:none;display:inline;filter:url(#filter3266-1)"
       id="rect2462"
       width="15.669146"
       height="2.5272818"
       x="-263.1788"
       y="-666.95624"
       ry="0"
       transform="matrix(-0.36585628,0.15154263,-0.15154263,-0.36585628,180.21891,36.568807)"
       inkscape:export-filename="C:\Documents and Settings\kuniaki\My Documents\Visual Studio 2008\Projects\DefiSubaruMonitor\描画SVG\AF_Bar\flowRoot2480-7.png"
       inkscape:export-xdpi="35.700001"
       inkscape:export-ydpi="35.700001" />
    <flowRoot
       xml:space="preserve"
       id="flowRoot2465"
       style="font-size:45px;font-style:normal;font-variant:normal;font-weight:normal;font-stretch:normal;text-align:start;line-height:125%;writing-mode:lr-tb;text-anchor:start;fill:#ffffff;fill-opacity:1;stroke:none;display:inline;font-family:Coolvetica;-inkscape-font-specification:Coolvetica"
       transform="matrix(0.396,0,0,0.396,288.01469,-64.496317)"
       inkscape:export-filename="C:\Documents and Settings\kuniaki\My Documents\Visual Studio 2008\Projects\DefiSubaruMonitor\描画SVG\AF_Bar\flowRoot2480-7.png"
       inkscape:export-xdpi="35.700001"
       inkscape:export-ydpi="35.700001"><flowRegion
         id="flowRegion2467"><rect
           id="rect2469"
           width="178"
           height="121"
           x="9"
           y="573.36218"
           style="font-size:45px;font-style:normal;font-variant:normal;font-weight:normal;font-stretch:normal;text-align:start;line-height:125%;writing-mode:lr-tb;text-anchor:start;fill:#ffffff;font-family:Coolvetica;-inkscape-font-specification:Coolvetica" /></flowRegion><flowPara
         id="flowPara2471" /></flowRoot>  </g>
  <g
     inkscape:groupmode="layer"
     id="layer6"
     inkscape:label="Value_bar"
     style="display:inline"
     transform="translate(-178.9375,-157)">
    <path
       inkscape:connector-curvature="0"
       style="fill:url(#radialGradient37542);fill-opacity:1;stroke:none;display:inline"
       d="m 299.81091,196.10226 c -0.69748,0 -1.39701,0.005 -2.09002,0.0239 l 1.1943,37.69197 c 0.31191,-0.008 0.6298,-0.0108 0.94349,-0.0119 l 0,-37.70391 c -0.0159,-1e-5 -0.0318,0 -0.0478,0 z m 0.3344,0 0,37.7039 c 0.31369,0.001 0.63158,0.004 0.9435,0.0119 l 1.19429,-37.66807 c -0.70965,-0.0225 -1.4234,-0.0447 -2.13779,-0.0478 z m -2.69911,0.0358 c -0.71253,0.0216 -1.41833,0.0546 -2.12584,0.0956 l 2.3647,37.63225 c 0.31789,-0.0185 0.63556,-0.0249 0.95544,-0.0358 l -1.1943,-37.69197 z m 5.11159,0.0119 -1.19429,37.68002 c 0.31988,0.0109 0.63754,0.0173 0.95543,0.0358 l 2.3647,-37.60836 c -0.70661,-0.0444 -1.41416,-0.0824 -2.12584,-0.10749 z m -7.51212,0.0956 c -0.71499,0.0439 -1.42823,0.10384 -2.13779,0.1672 l 3.54706,37.54865 c 0.31773,-0.0285 0.63556,-0.0507 0.95544,-0.0717 l -2.36471,-37.64419 z m 9.91265,0.0239 -2.3647,37.6203 c 0.31987,0.0209 0.63771,0.0431 0.95544,0.0717 l 3.54705,-37.51282 c -0.7101,-0.067 -1.42217,-0.13168 -2.13779,-0.17914 z m -12.32513,0.16719 c -0.71641,0.0666 -1.42723,0.14078 -2.13778,0.22692 l 4.74135,37.42922 c 0.31395,-0.0381 0.6273,-0.0649 0.94349,-0.0955 l -3.54706,-37.56056 z m 14.73761,0.0358 -3.54706,37.52482 c 0.3162,0.0307 0.62955,0.0574 0.9435,0.0956 l 4.72941,-37.39339 c -0.70611,-0.0891 -1.41389,-0.15719 -2.12585,-0.22692 z m -17.15008,0.21497 c -0.70325,0.0878 -1.40478,0.19183 -2.10196,0.29858 l 5.89982,37.26202 c 0.31536,-0.0484 0.63764,-0.0786 0.95543,-0.11943 l -4.75329,-37.44117 z m 19.55062,0.0478 -4.74136,37.39339 c 0.3178,0.0408 0.64007,0.071 0.95544,0.11943 l 5.88788,-37.20231 c -0.69722,-0.11025 -1.39862,-0.2192 -2.10196,-0.31051 z m -21.91533,0.29857 c -0.71104,0.11141 -1.42143,0.22746 -2.12584,0.35829 l 7.08217,37.07093 c 0.30963,-0.0575 0.6194,-0.11703 0.93155,-0.1672 l -5.88788,-37.26202 z m 24.28003,0.0597 -5.87593,37.2023 c 0.31214,0.0502 0.62191,0.10968 0.93155,0.1672 l 7.07022,-36.99927 c -0.70487,-0.13453 -1.41426,-0.25516 -2.12584,-0.37023 z m -26.66862,0.34634 c -0.70477,0.13345 -1.40416,0.27734 -2.10196,0.42995 l 8.2287,36.84407 c 0.31314,-0.0686 0.62759,-0.142 0.94349,-0.20303 l -7.07023,-37.07093 z m 29.05721,0.0717 -7.05829,36.99927 c 0.3159,0.061 0.63036,0.13444 0.9435,0.20303 l 8.21675,-36.76041 c -0.69746,-0.15619 -1.39746,-0.30487 -2.10196,-0.44189 z m -31.42191,0.418 c -0.6981,0.15526 -1.3873,0.32744 -2.07808,0.5016 l 9.38716,36.55739 c 0.30715,-0.0774 0.60962,-0.14484 0.91961,-0.21498 l -8.22869,-36.84401 z m 33.78662,0.0836 -8.21676,36.76041 c 0.30999,0.0701 0.61246,0.13753 0.91961,0.21498 l 9.36328,-36.47379 c -0.68652,-0.17663 -1.37231,-0.34366 -2.06613,-0.5016 z m -36.12744,0.47772 c -0.69677,0.1783 -1.3891,0.36406 -2.07808,0.56132 l 10.54563,36.25881 c 0.2986,-0.0853 0.6062,-0.17244 0.90767,-0.25081 l -9.37522,-36.56932 z m 38.45631,0.0955 -9.35133,36.47378 c 0.30147,0.0784 0.60907,0.16547 0.90766,0.25081 l 10.5098,-36.16327 c -0.68389,-0.1993 -1.37447,-0.38071 -2.06613,-0.56132 z m -40.79713,0.53744 c -0.68392,0.19846 -1.36636,0.4161 -2.04225,0.63297 l 11.65633,35.91246 c 0.30659,-0.0984 0.60977,-0.19561 0.9196,-0.28662 l -10.53368,-36.25881 z m 43.12601,0.10748 -10.49786,36.15133 c 0.30984,0.091 0.61302,0.18819 0.91961,0.28662 l 11.62049,-35.80497 c -0.67501,-0.22014 -1.35913,-0.43122 -2.04224,-0.63298 z m -45.431,0.60909 c -0.68147,0.22138 -1.35737,0.45288 -2.03031,0.69269 l 12.79091,35.53029 c 0.30116,-0.10729 0.60315,-0.21045 0.90766,-0.31052 l -11.66826,-35.91246 z m 47.73599,0.10749 -11.63244,35.80497 c 0.30451,0.10007 0.60651,0.20323 0.90767,0.31052 l 12.74313,-35.41086 c -0.6698,-0.24223 -1.34003,-0.48069 -2.01836,-0.70463 z m -50.02904,0.6688 c -0.67119,0.24195 -1.34407,0.49241 -2.00642,0.75241 l 13.91355,35.12423 c 0.29636,-0.1162 0.59587,-0.23722 0.89572,-0.34635 l -12.80285,-35.53029 z m 52.31014,0.11943 -12.75507,35.41086 c 0.29984,0.10913 0.59935,0.23015 0.89572,0.34635 l 13.85383,-34.99285 c -0.65918,-0.26226 -1.32645,-0.52002 -1.99448,-0.76436 z m -54.56736,0.74047 c -0.66915,0.26545 -1.32279,0.54046 -1.98253,0.82406 l 15.00035,34.65845 c 0.29656,-0.12731 0.59544,-0.25009 0.89573,-0.37023 l -13.91355,-35.11228 z m 56.81264,0.13137 -13.85383,34.98091 c 0.30028,0.12014 0.59916,0.24292 0.89572,0.37023 l 14.94064,-34.52707 c -0.658,-0.28644 -1.31509,-0.55573 -1.98253,-0.82407 z m -59.04597,0.80018 c -0.65536,0.28451 -1.31295,0.56969 -1.95864,0.87183 l 16.0991,34.18074 c 0.28524,-0.13318 0.57095,-0.26767 0.85989,-0.39412 L 269.33249,202.4081 z m 61.2793,0.13137 -14.94064,34.52708 c 0.28894,0.12645 0.57466,0.26094 0.8599,0.39412 l 16.02744,-34.03742 c -0.6418,-0.30382 -1.29525,-0.59741 -1.9467,-0.88378 z m -63.48875,0.85989 c -0.63832,0.30152 -1.27042,0.61307 -1.89893,0.93155 l 17.15008,33.66719 c 0.28158,-0.14242 0.56252,-0.28224 0.84796,-0.418 l -16.09911,-34.18074 z m 65.68626,0.14332 -16.02745,34.03742 c 0.28544,0.13576 0.56637,0.27558 0.84795,0.418 l 17.07842,-33.51193 c -0.62934,-0.32252 -1.25963,-0.63802 -1.89892,-0.94349 z m -67.84793,0.90766 c -0.63329,0.32393 -1.25211,0.67428 -1.87505,1.01516 l 18.18912,33.10586 c 0.28139,-0.15376 0.56242,-0.30684 0.84795,-0.45383 l -17.16202,-33.66715 z m 69.99766,0.16721 -17.07843,33.49998 c 0.28554,0.14699 0.56656,0.30007 0.84795,0.45383 l 18.10552,-32.95061 c -0.61929,-0.34241 -1.24542,-0.67759 -1.87504,-1.0032 z m -72.12351,0.97932 c -0.62573,0.34541 -1.24821,0.70068 -1.8631,1.06292 l 19.2401,32.52066 c 0.27355,-0.16081 0.54631,-0.32342 0.82407,-0.47772 l -18.20107,-33.10586 z m 74.24935,0.1672 -18.11746,32.93866 c 0.27775,0.1543 0.55052,0.31691 0.82406,0.47772 l 19.13262,-32.35346 c -0.6083,-0.36182 -1.22021,-0.71761 -1.83922,-1.06292 z m -76.35131,1.03904 c -0.61173,0.3634 -1.21474,0.7309 -1.81533,1.11069 l 20.24331,31.89963 c 0.26883,-0.16961 0.53893,-0.33842 0.81212,-0.5016 l -19.2401,-32.50872 z m 78.42939,0.15525 -19.13262,32.35347 c 0.2732,0.16318 0.5433,0.33199 0.81212,0.5016 L 340.97828,208.081 c -0.60039,-0.38319 -1.20372,-0.75587 -1.81533,-1.12264 z m -80.48358,1.09875 c -0.59923,0.38199 -1.19175,0.77238 -1.7795,1.17041 l 21.23458,31.25472 c 0.26463,-0.17878 0.53099,-0.35308 0.80018,-0.5255 l -20.25526,-31.89963 z m 82.53777,0.17915 -20.14777,31.72048 c 0.26919,0.17242 0.53555,0.34672 0.80018,0.5255 l 21.11514,-31.07557 c -0.58328,-0.39854 -1.17285,-0.78772 -1.76755,-1.17041 z m -84.54419,1.14652 c -0.58984,0.40255 -1.17775,0.81169 -1.75561,1.23013 l 22.2139,30.57396 c 0.25709,-0.18565 0.51456,-0.36988 0.77629,-0.54937 l -21.23458,-31.25472 z m 86.53866,0.19109 -21.11515,31.06363 c 0.26174,0.17949 0.5192,0.36372 0.7763,0.54937 L 344.95528,210.804 c -0.57345,-0.41883 -1.15831,-0.82701 -1.74367,-1.23013 z m -88.52119,1.21818 c -0.57444,0.41926 -1.14565,0.84321 -1.70784,1.2779 l 23.15739,29.85738 c 0.25207,-0.19442 0.50746,-0.3849 0.76435,-0.57326 l -22.2139,-30.56202 z m 90.49178,0.17915 -22.08253,30.38287 c 0.2569,0.18836 0.51228,0.37884 0.76435,0.57326 l 23.01408,-29.6663 c -0.56009,-0.43664 -1.12352,-0.86856 -1.6959,-1.28983 z m -92.41459,1.26595 c -0.56274,0.43832 -1.12199,0.88409 -1.67201,1.33761 l 24.08894,29.11692 c 0.24419,-0.20073 0.49137,-0.40227 0.74046,-0.59715 l -23.15739,-29.85738 z m 94.32546,0.19109 -23.01408,29.66629 c 0.2491,0.19488 0.49628,0.39642 0.74047,0.59715 l 23.93368,-28.92583 c -0.54585,-0.45362 -1.10158,-0.89903 -1.66007,-1.33761 z m -96.21245,1.32567 c -0.54983,0.45673 -1.08754,0.92566 -1.62424,1.39732 l 24.98466,28.34063 c 0.24118,-0.21137 0.48216,-0.41555 0.72852,-0.62104 l -24.08894,-29.11688 z m 98.08749,0.19108 -23.93368,28.92583 c 0.24636,0.20549 0.48735,0.40967 0.72852,0.62104 l 24.81746,-28.16149 c -0.53087,-0.46996 -1.06845,-0.93007 -1.6123,-1.38538 z m -99.91476,1.38538 c -0.53404,0.47266 -1.06783,0.94598 -1.58841,1.43316 l 25.8565,27.55239 c 0.23496,-0.21934 0.47625,-0.43134 0.71657,-0.64491 l -24.98466,-28.34064 z m 101.73009,0.17915 -24.81746,28.16149 c 0.24033,0.21357 0.48161,0.42557 0.71658,0.64491 l 25.67735,-27.3613 c -0.51836,-0.48862 -1.04464,-0.97094 -1.57647,-1.4451 z m -103.52153,1.44513 c -0.51757,0.48787 -1.02487,0.99092 -1.5287,1.49287 l 26.70445,26.71639 c 0.22426,-0.22273 0.46311,-0.43958 0.69269,-0.65686 l -25.86844,-27.5524 z m 105.30103,0.19109 -25.68929,27.36131 c 0.22957,0.21728 0.46843,0.43413 0.69269,0.65686 l 26.51336,-26.5253 c -0.50027,-0.50192 -1.00281,-1.0049 -1.51676,-1.49287 z m -107.03276,1.49287 c -0.50387,0.50564 -0.99126,1.02116 -1.48093,1.54064 l 27.54046,25.85649 c 0.21699,-0.22926 0.43443,-0.45678 0.65686,-0.68074 l -26.71639,-26.71639 z m 108.75255,0.19109 -26.5253,26.5253 c 0.22243,0.22396 0.43986,0.45148 0.65686,0.68074 l 27.33742,-25.6654 c -0.48571,-0.5188 -0.96916,-1.03552 -1.46898,-1.54064 z m -110.42456,1.55258 c -0.48718,0.52059 -0.9605,1.05438 -1.43316,1.58841 l 28.32869,24.98466 c 0.21433,-0.24133 0.42476,-0.48064 0.64492,-0.71657 l -27.54045,-25.8565 z m 112.08463,0.19109 -27.33742,25.66541 c 0.22015,0.23593 0.43059,0.47524 0.64491,0.71657 l 28.11372,-24.80551 c -0.46743,-0.53153 -0.93944,-1.05815 -1.42121,-1.57647 z m -113.70888,1.60036 c -0.46982,0.53472 -0.94231,1.06453 -1.39732,1.61229 l 29.11692,24.08894 c 0.20267,-0.24301 0.41264,-0.47861 0.62103,-0.71658 l -28.34063,-24.98465 z m 115.32118,0.19108 -28.12566,24.79357 c 0.2084,0.23797 0.41837,0.47357 0.62103,0.71658 l 28.89001,-23.89785 c -0.45156,-0.54716 -0.91908,-1.07804 -1.38538,-1.6123 z M 240.65745,224.001 c -0.45343,0.54991 -0.89937,1.10938 -1.33761,1.67201 l 29.86933,23.16933 c 0.19507,-0.24935 0.38427,-0.50796 0.58521,-0.75241 L 240.65745,224.001 z m 118.46217,0.19108 -28.89,23.89785 c 0.20093,0.24445 0.39013,0.50306 0.5852,0.75241 l 29.63047,-22.97824 c -0.43505,-0.56213 -0.87548,-1.12247 -1.32567,-1.67202 z m -119.96698,1.70785 c -0.43525,0.56303 -0.85813,1.13251 -1.2779,1.70784 l 30.56203,22.21389 c 0.18956,-0.25867 0.38949,-0.51056 0.5852,-0.76435 l -29.86933,-23.15738 z m 121.44791,0.17914 -29.61853,22.97824 c 0.19571,0.25379 0.39565,0.50568 0.58521,0.76435 l 30.31122,-22.03474 c -0.41825,-0.57676 -0.84413,-1.14337 -1.2779,-1.70785 z m -122.89301,1.75561 c -0.41717,0.57622 -0.82875,1.15555 -1.23012,1.74368 l 31.24277,21.24651 c 0.18168,-0.26491 0.37334,-0.52808 0.56132,-0.78824 l -30.57397,-22.20195 z m 124.33811,0.17915 -30.32316,22.0228 c 0.18797,0.26016 0.37964,0.52333 0.56132,0.78824 l 30.98002,-21.06737 c -0.39828,-0.58713 -0.80418,-1.16833 -1.21818,-1.74367 z m -125.72349,1.79144 c -0.39783,0.58745 -0.78861,1.18058 -1.17041,1.7795 l 31.89963,20.24331 c 0.17134,-0.26725 0.33595,-0.52548 0.51355,-0.78823 l -31.24277,-21.23458 z m 127.09693,0.17915 -30.98003,21.05543 c 0.17761,0.26275 0.34221,0.52098 0.51355,0.78823 l 31.62495,-20.06416 c -0.37886,-0.59788 -0.76366,-1.19299 -1.15847,-1.7795 z m -128.41065,1.83921 c -0.38275,0.60521 -0.75655,1.2227 -1.12264,1.83922 l 32.52066,19.21621 c 0.16046,-0.26854 0.323,-0.53586 0.48967,-0.80018 l -31.88769,-20.25525 z m 129.71243,0.17914 -31.613,20.07611 c 0.16666,0.26432 0.3292,0.53164 0.48966,0.80018 l 32.24598,-19.04901 c -0.36297,-0.61487 -0.74315,-1.22358 -1.12264,-1.82728 z m -130.97839,1.88699 c -0.36128,0.61331 -0.71838,1.22706 -1.06292,1.85116 l 33.10587,18.20106 c 0.15332,-0.27589 0.31797,-0.55233 0.47772,-0.82406 l -32.52067,-19.22816 z m 132.2324,0.16721 -32.23403,19.06095 c 0.15974,0.27173 0.3244,0.54817 0.47771,0.82406 l 32.8073,-18.03386 c -0.34207,-0.62323 -0.69222,-1.23863 -1.05098,-1.85115 z m -65.97288,0.0119 c -21.4526,0 -38.83849,17.39782 -38.83849,38.85042 0,21.40473 17.3086,38.7611 38.69517,38.83849 l 0,-37.75168 c -0.54492,-0.07 -0.96738,-0.52271 -0.96738,-1.08681 0,-0.61253 0.49817,-1.11069 1.1107,-1.11069 0.61253,0 1.11069,0.49816 1.11069,1.11069 0,0.5641 -0.42245,1.01677 -0.96738,1.08681 l 0,37.75168 c 21.38657,-0.0774 38.69518,-17.43376 38.69518,-38.83849 0,-21.4526 -17.38589,-38.85042 -38.83849,-38.85042 z m -67.45381,1.92281 c -0.34282,0.62644 -0.67755,1.26201 -1.00321,1.89893 l 33.65524,17.15008 c 0.14684,-0.28522 0.30025,-0.56686 0.45384,-0.84795 L 232.54819,235.9917 z m 134.62099,0.15525 -32.81924,18.04581 c 0.15358,0.28109 0.307,0.56273 0.45383,0.84795 l 33.34473,-16.99482 c -0.32254,-0.63431 -0.63979,-1.27497 -0.97932,-1.89894 z m -135.74363,1.98253 c -0.32233,0.63587 -0.62659,1.2769 -0.93155,1.92282 l 34.16879,16.08716 c 0.1373,-0.28868 0.2739,-0.57516 0.41801,-0.85989 l -33.65525,-17.15009 z m 136.84238,0.15526 -33.34473,16.99483 c 0.14411,0.28473 0.2807,0.57121 0.418,0.85989 l 33.85828,-15.94384 c -0.30205,-0.64325 -0.6123,-1.27755 -0.93155,-1.91088 z m -137.89336,2.01837 c -0.30157,0.64481 -0.5998,1.29225 -0.88378,1.9467 l 34.65845,15.00035 c 0.1279,-0.29224 0.25935,-0.58338 0.39412,-0.87184 l -34.16879,-16.07521 z m 138.94434,0.14331 -33.85828,15.9319 c 0.13478,0.28846 0.26622,0.5796 0.39412,0.87184 l 34.34794,-14.85704 c -0.28256,-0.65493 -0.58362,-1.30137 -0.88378,-1.9467 z m -139.94755,2.05419 c -0.28136,0.65493 -0.54865,1.31833 -0.81212,1.98253 l 35.12423,13.9016 c 0.11832,-0.29541 0.23302,-0.59198 0.35829,-0.88378 l -34.6704,-15.00035 z m 140.93881,0.14331 -34.34793,14.85704 c 0.12526,0.2918 0.23996,0.58837 0.35828,0.88378 l 34.80178,-13.77023 c -0.26088,-0.6613 -0.53353,-1.31843 -0.81213,-1.97059 z M 228.4637,244.722 c -0.262,0.66704 -0.52067,1.34233 -0.76435,2.01836 l 35.54223,12.7909 c 0.10794,-0.29633 0.21955,-0.59084 0.3344,-0.88378 L 228.4637,244.722 z m 142.7422,0.13137 -34.77789,13.79411 c 0.11485,0.29294 0.22647,0.58745 0.3344,0.88378 l 35.19589,-12.67148 c -0.24094,-0.67187 -0.49338,-1.34337 -0.7524,-2.00641 z m -143.59015,2.13779 c -0.24118,0.67643 -0.47015,1.35719 -0.69269,2.04224 l 35.91246,11.65633 c 0.099,-0.30114 0.20446,-0.59787 0.31052,-0.89572 l -35.53029,-12.80285 z m 144.4381,0.11943 -35.19589,12.68342 c 0.10605,0.29786 0.21152,0.59459 0.31051,0.89572 l 35.56613,-11.54884 c -0.21994,-0.68043 -0.44246,-1.35834 -0.68075,-2.0303 z m -145.21439,2.17362 c -0.21786,0.67861 -0.43368,1.35553 -0.63298,2.04224 l 36.25881,10.54563 c 0.0906,-0.30851 0.18865,-0.61431 0.28663,-0.9196 l -35.91246,-11.66827 z m 145.97873,0.10749 -35.56612,11.56078 c 0.098,0.30529 0.19601,0.61109 0.28664,0.9196 l 35.90052,-10.43814 c -0.19803,-0.68606 -0.40449,-1.36424 -0.62104,-2.04224 z m -146.68337,2.20944 c -0.1951,0.68177 -0.38478,1.36479 -0.56132,2.05419 l 36.56933,9.39911 c 0.0811,-0.3123 0.16223,-0.62234 0.2508,-0.93155 l -36.25881,-10.52175 z m 147.38801,0.10749 -35.91247,10.41426 c 0.0886,0.30921 0.16971,0.61925 0.2508,0.93155 l 36.21104,-9.30357 c -0.17435,-0.68453 -0.35672,-1.36521 -0.54937,-2.04224 z m -148.00904,2.20945 c -0.17447,0.69143 -0.34608,1.39125 -0.50161,2.09001 l 36.84402,8.24064 c 0.0703,-0.31087 0.13729,-0.62353 0.21497,-0.93155 l -36.55738,-9.3991 z m 148.61813,0.0955 -36.1991,9.30356 c 0.0777,0.30802 0.14465,0.62068 0.21498,0.93155 l 36.47378,-8.16898 c -0.15301,-0.69056 -0.31816,-1.38271 -0.48966,-2.06613 z m -149.17945,2.26916 c -0.15162,0.69326 -0.2853,1.38988 -0.41801,2.09002 l 37.07094,7.08217 c 0.0602,-0.31139 0.12358,-0.62284 0.19108,-0.93155 l -36.84401,-8.24064 z m 149.72883,0.0836 -36.47379,8.15704 c 0.0675,0.30871 0.13092,0.62016 0.19109,0.93155 l 36.71264,-7.01051 c -0.13145,-0.69727 -0.27974,-1.38762 -0.42994,-2.07808 z m -150.20655,2.28112 c -0.13072,0.70383 -0.24695,1.40346 -0.35829,2.11391 l 37.27396,5.89982 c 0.0509,-0.31638 0.10881,-0.62971 0.1672,-0.94349 l -37.08287,-7.07024 z m 150.68426,0.0717 -36.71264,6.99858 c 0.0584,0.31378 0.11634,0.62711 0.1672,0.94349 l 36.90373,-5.84011 c -0.11016,-0.70668 -0.22894,-1.4018 -0.35829,-2.10196 z m -151.09032,2.31694 c -0.10659,0.69685 -0.19895,1.39905 -0.28663,2.10196 l 37.42922,4.74135 c 0.0413,-0.32156 0.0823,-0.63637 0.13137,-0.95543 l -37.27396,-5.88788 z m 151.48444,0.0597 -36.89179,5.82817 c 0.0491,0.31906 0.0901,0.63387 0.13137,0.95543 l 37.04705,-4.69358 c -0.0867,-0.69898 -0.18118,-1.39701 -0.28663,-2.09002 z m -151.8069,2.31694 c -0.0857,0.70734 -0.16067,1.42463 -0.22692,2.13778 l 37.5606,3.54706 c 0.0307,-0.31714 0.0573,-0.64056 0.0955,-0.95544 l -37.42922,-4.7294 z m 152.12936,0.0478 -37.04705,4.68163 c 0.0383,0.31488 0.0648,0.6383 0.0956,0.95544 l 37.17842,-3.51123 c -0.0656,-0.70939 -0.14215,-1.42219 -0.22692,-2.12584 z m -152.38016,2.3647 c -0.0632,0.70758 -0.11146,1.41287 -0.15526,2.12585 l 37.64419,2.3647 c 0.0208,-0.31594 0.0435,-0.62964 0.0717,-0.94349 l -37.56059,-3.54706 z m 152.63096,0.0358 -37.17842,3.51123 c 0.0282,0.31385 0.0509,0.62755 0.0717,0.94349 l 37.26202,-2.34082 c -0.0433,-0.70902 -0.0928,-1.41022 -0.15526,-2.1139 z m -152.81011,2.36471 c -0.041,0.70931 -0.0739,1.42342 -0.0955,2.13778 l 37.69197,1.1943 c 0.011,-0.32407 0.0289,-0.64535 0.0478,-0.96738 l -37.6442,-2.3647 z m 152.98926,0.0239 -37.26202,2.34081 c 0.0189,0.32204 0.0367,0.64331 0.0478,0.96739 l 37.30979,-1.18236 c -0.0213,-0.71035 -0.055,-1.42048 -0.0955,-2.12584 z M 223.2088,270.6382 c -0.0185,0.69279 -0.0239,1.39276 -0.0239,2.09001 0,0.016 -1e-5,0.0318 0,0.0478 l 37.70391,0 c 0.001,-0.3137 0.004,-0.63159 0.0119,-0.9435 l -37.69197,-1.19429 z m 153.20422,0.0119 -37.30979,1.18235 c 0.008,0.31191 0.0108,0.6298 0.0119,0.94349 l 37.32176,4e-5 c 10e-6,-0.016 0,-0.0318 0,-0.0478 0,-0.69326 -0.006,-1.38923 -0.0239,-2.07807 z m -76.41102,1.42125 c -0.46382,0 -0.83601,0.38413 -0.83601,0.84795 0,0.41408 0.29827,0.75492 0.69269,0.82406 l 0,-0.82406 0.28663,0 0,0.82406 c 0.39442,-0.0691 0.69269,-0.40998 0.69269,-0.82406 0,-0.46382 -0.37219,-0.84795 -0.836,-0.84795 z m -76.81709,0.97934 c 0.003,0.71674 0.0253,1.42583 0.0478,2.13779 l 37.66808,-1.18235 c -0.009,-0.3193 -0.0109,-0.63427 -0.0119,-0.95544 l -37.70391,0 z m 115.93027,0 c -0.001,0.32117 -0.003,0.63614 -0.0119,0.95544 l 37.29785,1.17041 c 0.0223,-0.70788 0.0329,-1.41326 0.0358,-2.12585 l -37.32174,0 z m -78.20247,1.23013 -37.68003,1.18234 c 0.0252,0.71503 0.0629,1.42789 0.10749,2.1378 l 37.62031,-2.36471 c -0.0185,-0.31684 -0.0368,-0.63661 -0.0478,-0.95543 z m 78.17858,0 c -0.011,0.31882 -0.0292,0.63859 -0.0478,0.95543 l 37.23813,2.34082 c 0.0441,-0.70596 0.0826,-1.41483 0.10749,-2.12584 l -37.29785,-1.17041 z m -78.11887,1.23012 -37.60837,2.3647 c 0.0472,0.71012 0.10082,1.42116 0.16721,2.12585 l 37.52476,-3.54706 c -0.0282,-0.31462 -0.0629,-0.62677 -0.0836,-0.94349 z m 78.05915,0 c -0.0207,0.31672 -0.0554,0.62887 -0.0836,0.94349 l 37.14259,3.51123 c 0.0657,-0.70087 0.12052,-1.40767 0.16721,-2.1139 l -37.2262,-2.34082 z m -77.95166,1.21818 -37.52477,3.54706 c 0.0696,0.71147 0.14995,1.42021 0.23886,2.12584 l 37.38145,-4.71747 c -0.0384,-0.31558 -0.0647,-0.63757 -0.0955,-0.95543 z m 77.84418,0 c -0.0308,0.31786 -0.0572,0.63985 -0.0956,0.95543 l 36.99928,4.6697 c 0.088,-0.70177 0.16999,-1.40636 0.23886,-2.1139 l -37.14259,-3.51123 z m -77.71281,1.21818 -37.38145,4.72941 c 0.0918,0.70804 0.18757,1.41207 0.29857,2.11391 l 37.21425,-5.88788 c -0.049,-0.31907 -0.0901,-0.63388 -0.13137,-0.95544 z m 77.58143,0 c -0.0413,0.32156 -0.0823,0.63637 -0.13137,0.95544 l 36.83208,5.82816 c 0.10985,-0.69803 0.2077,-1.3978 0.29857,-2.10196 l -36.99928,-4.68164 z m -77.40229,1.23013 -37.21425,5.87593 c 0.1146,0.7084 0.23636,1.41215 0.37024,2.1139 l 37.01121,-7.05828 c -0.0574,-0.30885 -0.11705,-0.62021 -0.1672,-0.93155 z m 77.22315,0 c -0.0501,0.31134 -0.10975,0.6227 -0.1672,0.93155 l 36.64099,6.98663 c 0.13252,-0.69824 0.2568,-1.39717 0.37023,-2.10196 l -36.84402,-5.81622 z m -77.00817,1.19429 -37.01122,7.07023 c 0.13603,0.69917 0.28699,1.39778 0.44189,2.09002 l 36.76041,-8.2287 c -0.0675,-0.30906 -0.1309,-0.6198 -0.19108,-0.93155 z m 76.7932,0 c -0.0602,0.31175 -0.12355,0.62249 -0.19109,0.93155 l 36.40213,8.1451 c 0.15307,-0.68776 0.29549,-1.38349 0.42994,-2.07808 l -36.64098,-6.99857 z m -76.5424,1.20624 -36.76042,8.2287 c 0.1588,0.69759 0.32391,1.38786 0.50161,2.07807 l 36.47378,-9.37522 c -0.0779,-0.30868 -0.14451,-0.62 -0.21497,-0.93155 z m 76.2916,0 c -0.0705,0.31155 -0.13713,0.62287 -0.21498,0.93155 l 36.1155,9.27968 c 0.17582,-0.6866 0.34448,-1.37225 0.5016,-2.06614 l -36.40212,-8.14509 z m -76.00497,1.1943 -36.47378,9.37522 c 0.17972,0.68788 0.36309,1.37397 0.56131,2.05418 l 36.16327,-10.49785 c -0.0886,-0.30922 -0.1697,-0.61925 -0.2508,-0.93155 z m 75.71833,0 c -0.0811,0.3123 -0.16223,0.62233 -0.2508,0.93155 l 35.80498,10.40231 c 0.1974,-0.68062 0.38244,-1.3659 0.56132,-2.05419 l -36.1155,-9.27967 z m -75.39587,1.18235 -36.15133,10.5098 c 0.20236,0.68513 0.41214,1.36526 0.63298,2.04224 l 35.80498,-11.63243 c -0.098,-0.30529 -0.196,-0.6111 -0.28663,-0.91961 z m 75.07342,0 c -0.0906,0.30851 -0.18866,0.61432 -0.28664,0.91961 l 35.45864,11.52495 c 0.21856,-0.67342 0.4327,-1.34886 0.63298,-2.0303 l -35.80498,-10.41426 z m -74.70319,1.18235 -35.79304,11.63244 c 0.22302,0.67515 0.45157,1.35165 0.6927,2.01836 l 35.41086,-12.75508 c -0.10521,-0.29564 -0.21227,-0.59685 -0.31052,-0.89572 z m 74.33295,0 c -0.0982,0.29887 -0.2053,0.60008 -0.31051,0.89572 l 35.07646,12.63565 c 0.23842,-0.66269 0.46022,-1.3354 0.68075,-2.00642 l -35.4467,-11.52495 z m -73.92689,1.15847 -35.4228,12.74313 c 0.24713,0.67599 0.51081,1.33949 0.77629,2.00641 l 34.98091,-13.86576 c -0.116,-0.29589 -0.22545,-0.58443 -0.3344,-0.88378 z m 73.52083,0 c -0.10895,0.29935 -0.2184,0.58789 -0.3344,0.88378 l 34.65846,13.7344 c 0.26173,-0.66116 0.50869,-1.32446 0.7524,-1.99448 l -35.07646,-12.6237 z m -73.07894,1.14652 -34.99286,13.84188 c 0.26707,0.66436 0.53908,1.32754 0.82407,1.98253 l 34.52708,-14.94063 c -0.12527,-0.2918 -0.23997,-0.58837 -0.35829,-0.88378 z m 72.63705,0 c -0.11832,0.29541 -0.23302,0.59198 -0.35828,0.88378 l 34.20462,14.79732 c 0.28161,-0.65086 0.54819,-1.31052 0.81212,-1.97059 l -34.65846,-13.71051 z m -72.17128,1.13458 -34.52708,14.92869 c 0.2876,0.65483 0.59049,1.30162 0.89572,1.94671 l 34.02548,-16.00356 c -0.13477,-0.28846 -0.26622,-0.5796 -0.39412,-0.87184 z m 71.70551,0 c -0.1279,0.29224 -0.25934,0.58338 -0.39412,0.87184 l 33.71496,15.86024 c 0.30159,-0.64087 0.59958,-1.28432 0.88378,-1.93476 l -34.20462,-14.79732 z m -71.19196,1.12264 -34.02548,16.00356 c 0.30865,0.6462 0.61743,1.28677 0.9435,1.92281 l 33.49999,-17.06648 c -0.14283,-0.28214 -0.28187,-0.57386 -0.41801,-0.85989 z m 70.67841,0 c -0.13613,0.28603 -0.27517,0.57775 -0.418,0.85989 l 33.20141,16.91122 c 0.32214,-0.63198 0.62659,-1.2689 0.93155,-1.91087 L 335.3412,289.69919 z m -70.14098,1.09875 -33.49998,17.06648 c 0.32703,0.63248 0.65923,1.26494 1.0032,1.88699 l 32.95062,-18.10552 c -0.15376,-0.28139 -0.30684,-0.56241 -0.45384,-0.84795 z m 69.60355,0 c -0.14699,0.28554 -0.30007,0.56656 -0.45383,0.84795 l 32.65204,17.93832 c 0.33981,-0.61809 0.66816,-1.24672 0.99126,-1.87505 l -33.18947,-16.91122 z m -69.01834,1.08681 -32.93867,18.10552 c 0.34623,0.62077 0.70009,1.24117 1.06292,1.85116 l 32.35347,-19.13262 c -0.16081,-0.27354 -0.32342,-0.54631 -0.47772,-0.82406 z m 68.43313,0 c -0.15429,0.27775 -0.3169,0.55052 -0.47771,0.82406 l 32.06683,18.96541 c 0.36149,-0.61119 0.71809,-1.2292 1.06292,-1.85115 l -32.65204,-17.93832 z m -67.8121,1.06292 -32.3654,19.12067 c 0.36879,0.61522 0.74917,1.22343 1.13458,1.82727 l 31.72049,-20.13582 c -0.16853,-0.26712 -0.32748,-0.54069 -0.48967,-0.81212 z m 67.19107,0 c -0.16219,0.27143 -0.32114,0.545 -0.48966,0.81212 l 31.4458,19.95668 c 0.38066,-0.60002 0.75835,-1.20416 1.12264,-1.81533 l -32.07878,-18.95347 z m -66.54615,1.05098 -31.72048,20.13582 c 0.38268,0.59471 0.77187,1.18429 1.17041,1.76756 l 31.06362,-21.1032 c -0.17761,-0.26277 -0.3422,-0.53291 -0.51355,-0.80018 z m 65.90123,0 c -0.16957,0.2645 -0.33783,0.52814 -0.51355,0.78824 l 30.80088,20.936 c 0.39695,-0.58445 0.78936,-1.17171 1.17041,-1.76756 l -31.45774,-19.95668 z m -65.22048,1.01515 -31.06362,21.11515 c 0.40225,0.58411 0.81223,1.15949 1.23012,1.73173 l 30.38288,-22.07059 c -0.18607,-0.25751 -0.36948,-0.51411 -0.54938,-0.77629 z m 64.53973,0 c -0.1799,0.26218 -0.3633,0.51878 -0.54937,0.77629 l 30.13207,21.89144 c 0.41606,-0.57321 0.82972,-1.14669 1.23013,-1.73172 L 332.27186,295.0138 z m -63.83509,0.99127 -30.37094,22.08253 c 0.42193,0.57332 0.84055,1.14685 1.2779,1.70784 l 29.67824,-23.02602 c -0.19571,-0.25379 -0.39564,-0.50567 -0.5852,-0.76435 z m 63.13046,0 c -0.18956,0.25868 -0.3895,0.51056 -0.58521,0.76435 l 29.43939,22.83493 c 0.43379,-0.56 0.85943,-1.1237 1.27789,-1.6959 l -30.13207,-21.90338 z m -62.37806,0.97932 -29.69018,23.02602 c 0.44005,0.56047 0.89436,1.11234 1.34955,1.66007 l 28.92584,-23.93368 c -0.20094,-0.24444 -0.39014,-0.50306 -0.58521,-0.75241 z m 61.62565,0 c -0.19507,0.24935 -0.38427,0.50797 -0.5852,0.75241 l 28.69892,23.74259 c 0.45029,-0.54538 0.89033,-1.10216 1.32567,-1.66007 l -29.43939,-22.83493 z m -60.8613,0.96738 -28.91389,23.93368 c 0.45468,0.54299 0.91609,1.08226 1.38538,1.6123 l 28.14954,-24.8294 c -0.20793,-0.23746 -0.4188,-0.4741 -0.62103,-0.71658 z m 60.09695,0 c -0.20222,0.24248 -0.4131,0.47912 -0.62103,0.71658 l 27.93457,24.63832 c 0.46776,-0.53182 0.93229,-1.06757 1.38538,-1.6123 l -28.69892,-23.7426 z m -59.29677,0.93155 -28.14954,24.81746 c 0.47292,0.53039 0.95779,1.04753 1.44509,1.56453 l 27.34937,-25.67735 c -0.21824,-0.23394 -0.43241,-0.4654 -0.64492,-0.70464 z m 58.49659,0 c -0.21251,0.23924 -0.42667,0.4707 -0.64491,0.70464 l 27.14633,25.48626 c 0.48336,-0.51633 0.96408,-1.03496 1.43316,-1.56453 L 329.25029,298.8833 z m -57.66058,0.90767 -27.34937,25.67735 c 0.48991,0.51601 0.97695,1.02648 1.48093,1.5287 l 26.5253,-26.52531 c -0.22274,-0.22428 -0.43957,-0.45114 -0.65686,-0.68074 z m 56.82458,0 c -0.21729,0.2296 -0.43412,0.45646 -0.65686,0.68074 l 26.33421,26.33422 c 0.50037,-0.50213 0.98261,-1.01291 1.46899,-1.5287 l -27.14634,-25.48626 z m -55.96469,0.87183 -26.5253,26.52531 c 0.50358,0.4982 1.01153,0.99673 1.52869,1.48092 l 25.67736,-27.34937 c -0.22751,-0.21532 -0.45846,-0.43617 -0.68075,-0.65686 z m 55.1048,0 c -0.2223,0.22069 -0.45324,0.44154 -0.68075,0.65686 l 25.49821,27.15829 c 0.51337,-0.48413 1.0169,-0.98294 1.51675,-1.48093 l -26.33421,-26.3342 z m -54.22102,0.85989 -25.67736,27.33743 c 0.52245,0.4856 1.05255,0.96212 1.58842,1.43315 l 24.79357,-28.1376 c -0.23611,-0.20982 -0.47369,-0.41757 -0.70463,-0.63298 z m 53.33724,0 c -0.23095,0.21541 -0.46852,0.42316 -0.70464,0.63298 l 24.62637,27.94652 c 0.53164,-0.47085 1.05818,-0.94792 1.57648,-1.43316 l -25.49821,-27.14634 z m -52.42958,0.81212 -24.80552,28.13761 c 0.53646,0.46833 1.08672,0.91998 1.63619,1.37344 l 23.89785,-28.87807 c -0.24679,-0.20583 -0.48692,-0.42124 -0.72852,-0.63298 z m 51.52191,0 c -0.24159,0.21174 -0.48172,0.42715 -0.72852,0.63298 l 23.7426,28.68698 c 0.54551,-0.45374 1.09168,-0.90499 1.62424,-1.37344 l -24.63832,-27.94652 z m -50.57841,0.81212 -23.89786,28.86613 c 0.54917,0.44997 1.09833,0.90276 1.66007,1.33761 L 275.925,303.73216 c -0.24893,-0.19475 -0.49642,-0.3846 -0.74046,-0.58521 z m 49.63492,0 c -0.24404,0.20061 -0.49154,0.39046 -0.74047,0.58521 l 22.83494,29.42744 c 0.55542,-0.4335 1.10511,-0.87733 1.64812,-1.32566 l -23.74259,-28.68699 z m -48.67949,0.75241 -22.97824,29.61853 c 0.56577,0.43478 1.14168,0.85872 1.71978,1.2779 l 22.02281,-30.32317 c -0.25689,-0.18835 -0.51228,-0.37883 -0.76435,-0.57326 z m 47.72405,0 c -0.25207,0.19443 -0.50745,0.38491 -0.76435,0.57326 l 21.89144,30.14402 c 0.57604,-0.42121 1.14416,-0.85309 1.70784,-1.28984 l -22.83493,-29.42744 z m -46.73278,0.74047 -22.03475,30.31122 c 0.57915,0.41691 1.1645,0.82914 1.75561,1.23012 l 21.05543,-30.99197 c -0.26173,-0.1795 -0.5192,-0.36372 -0.77629,-0.54937 z m 45.74152,0 c -0.2571,0.18565 -0.51456,0.36987 -0.7763,0.54937 l 20.936,30.81283 c 0.58661,-0.40149 1.16895,-0.81291 1.74368,-1.23013 l -21.90338,-30.13207 z m -44.75026,0.70463 -21.04348,30.99197 c 0.58712,0.39522 1.18098,0.77923 1.7795,1.15846 l 20.06416,-31.62494 c -0.26725,-0.17134 -0.53743,-0.34788 -0.80018,-0.52549 z m 43.74705,0 c -0.2601,0.17571 -0.52374,0.35592 -0.78824,0.52549 l 19.95668,31.45774 c 0.59585,-0.38105 1.18311,-0.77346 1.76756,-1.1704 l -20.936,-30.81283 z m -42.70801,0.66881 -20.07611,31.62494 c 0.60085,0.37777 1.2034,0.7493 1.81533,1.1107 l 19.0729,-32.23404 c -0.27393,-0.16364 -0.54259,-0.33151 -0.81212,-0.5016 z m 41.68091,0 c -0.26953,0.17009 -0.53819,0.33796 -0.81212,0.5016 l 18.96542,32.06683 c 0.61035,-0.36394 1.21609,-0.73041 1.81532,-1.11069 l -19.96862,-31.45774 z m -40.62993,0.64491 -19.0729,32.23404 c 0.60979,0.35715 1.23077,0.69842 1.85116,1.03904 l 18.04581,-32.8073 c -0.27637,-0.15355 -0.55187,-0.30578 -0.82407,-0.46578 z m 39.57895,0 c -0.2722,0.16 -0.5477,0.31223 -0.82406,0.46578 l 17.9622,32.65204 c 0.61478,-0.34106 1.22302,-0.69365 1.82728,-1.05098 l -18.96542,-32.06684 z m -38.51603,0.59715 -18.03386,32.81924 c 0.62081,0.33781 1.24401,0.67028 1.87505,0.99127 l 17.00676,-33.35668 c -0.2857,-0.14707 -0.56639,-0.29997 -0.84795,-0.45383 z m 37.45311,0 c -0.28156,0.15386 -0.56224,0.30676 -0.84795,0.45383 l 16.92317,33.20142 c 0.62792,-0.3229 1.2454,-0.66362 1.8631,-1.00321 l -17.93832,-32.65204 z m -36.35436,0.57326 -16.99482,33.36862 c 0.62731,0.31605 1.26189,0.62044 1.89893,0.91961 l 15.94385,-33.85828 c -0.28612,-0.13607 -0.56572,-0.28718 -0.84796,-0.42995 z m 35.25561,0 c -0.28224,0.14277 -0.56184,0.29388 -0.84795,0.42995 l 15.87219,33.71496 c 0.63798,-0.30309 1.2708,-0.61148 1.89893,-0.93155 L 317.6298,307.82859 z m -34.15685,0.54938 -15.93191,33.85828 c 0.63875,0.29704 1.28661,0.58008 1.93477,0.85989 l 14.85703,-34.336 c -0.28817,-0.12611 -0.5754,-0.24936 -0.85989,-0.38217 z m 33.0581,0 c -0.2845,0.13281 -0.57172,0.25606 -0.8599,0.38217 l 14.79733,34.20463 c 0.64756,-0.28308 1.29668,-0.57152 1.93475,-0.87184 l -15.87218,-33.71496 z m -31.94741,0.48966 -14.85703,34.34794 c 0.65089,0.27817 1.29863,0.5516 1.95864,0.81212 l 13.79412,-34.78983 c -0.30029,-0.12013 -0.59917,-0.24292 -0.89573,-0.37023 z m 30.83671,0 c -0.29656,0.12731 -0.59544,0.2501 -0.89572,0.37023 l 13.7344,34.65846 c 0.66008,-0.26406 1.30778,-0.54232 1.95865,-0.82406 l -14.79733,-34.20463 z m -29.69018,0.46578 -13.78217,34.80177 c 0.65816,0.25696 1.3276,0.48937 1.99447,0.72852 l 12.68342,-35.18395 c -0.29985,-0.10912 -0.59936,-0.23014 -0.89572,-0.34634 z m 28.54366,0 c -0.29637,0.1162 -0.59588,0.23722 -0.89572,0.34634 l 12.63564,35.06452 c 0.66685,-0.24267 1.33642,-0.47995 1.99448,-0.74046 l -13.7344,-34.6704 z m -27.39714,0.42994 -12.67148,35.19589 c 0.66846,0.23695 1.34152,0.46198 2.01836,0.68075 l 11.56078,-35.56612 c -0.30451,-0.10007 -0.6065,-0.20322 -0.90766,-0.31052 z m 26.25062,0 c -0.30116,0.1073 -0.60316,0.21045 -0.90767,0.31052 l 11.52495,35.45864 c 0.67373,-0.22132 1.34108,-0.45335 2.00642,-0.6927 l -12.6237,-35.07646 z m -25.09215,0.39412 -11.54884,35.56612 c 0.67507,0.2155 1.35919,0.42389 2.04224,0.62104 l 10.4262,-35.90053 c -0.30983,-0.091 -0.61301,-0.1882 -0.9196,-0.28663 z m 23.93368,0 c -0.30659,0.0984 -0.60977,0.19562 -0.91961,0.28663 l 10.39037,35.80498 c 0.68334,-0.20072 1.36698,-0.41387 2.04225,-0.63297 l -11.51301,-35.45864 z m -22.73939,0.35829 -10.43814,35.91247 c 0.68102,0.19389 1.36557,0.38593 2.05419,0.56131 l 9.29162,-36.22298 c -0.30147,-0.0784 -0.60907,-0.16546 -0.90767,-0.2508 z m 21.54509,0 c -0.29859,0.0853 -0.60619,0.17243 -0.90766,0.2508 l 9.26773,36.12744 c 0.68469,-0.17794 1.36515,-0.377 2.04225,-0.57326 l -10.40232,-35.80498 z m -20.36274,0.32246 -9.30356,36.21104 c 0.68982,0.17308 1.38098,0.32349 2.07808,0.47772 l 8.14509,-36.46184 c -0.31031,-0.0702 -0.61214,-0.14939 -0.91961,-0.22692 z m 19.18039,0 c -0.30746,0.0775 -0.6093,0.15671 -0.91961,0.22692 l 8.13316,36.39018 c 0.69385,-0.15712 1.37956,-0.31385 2.06613,-0.48966 l -9.27968,-36.12744 z m -17.99803,0.28663 -8.1451,36.46184 c 0.69428,0.15104 1.38886,0.29787 2.09002,0.42995 l 6.99857,-36.7007 c -0.31553,-0.061 -0.63072,-0.1226 -0.94349,-0.19109 z m 16.81568,0 c -0.31278,0.0685 -0.62797,0.13013 -0.9435,0.19109 l 6.98663,36.62904 c 0.70091,-0.13562 1.39607,-0.2873 2.09002,-0.44189 l -8.13315,-36.37824 z m -15.5975,0.23886 -7.01052,36.7007 c 0.7007,0.12944 1.40667,0.25999 2.11391,0.37023 l 5.82816,-36.90373 c -0.31215,-0.0502 -0.62192,-0.10969 -0.93155,-0.1672 z m 14.37932,0 c -0.30964,0.0575 -0.61941,0.11703 -0.93155,0.1672 l 5.81621,36.83207 c 0.70726,-0.1138 1.41327,-0.2372 2.11391,-0.37023 l -6.99857,-36.62904 z m -13.17308,0.21497 -5.84011,36.89179 c 0.69348,0.10563 1.39055,0.19972 2.09002,0.28663 l 4.70552,-37.05899 c -0.31779,-0.0408 -0.64007,-0.0711 -0.95543,-0.11943 z m 11.94295,0 c -0.30766,0.047 -0.62157,0.0796 -0.93155,0.11943 l 4.69358,37.01122 c 0.69941,-0.0904 1.39666,-0.18948 2.09002,-0.29857 l -5.82816,-36.83208 c -0.008,10e-4 -0.0161,-0.001 -0.0239,0 z m -10.72477,0.15526 -4.69358,37.05899 c 0.70629,0.0852 1.41376,0.14915 2.12584,0.21497 l 3.51123,-37.16647 c -0.31638,-0.0307 -0.62936,-0.0693 -0.94349,-0.10749 z m 9.53048,0 c -0.31414,0.0382 -0.62712,0.0768 -0.9435,0.10749 l 3.51123,37.13064 c 0.70808,-0.069 1.41161,-0.13875 2.1139,-0.22691 l -4.68163,-37.01122 z m -8.3123,0.13137 -3.51123,37.16648 c 0.70564,0.0627 1.41484,0.12379 2.12585,0.1672 l 2.34082,-37.26202 c -0.32008,-0.0209 -0.63752,-0.0431 -0.95544,-0.0717 z m 7.09412,0 c -0.31793,0.0286 -0.63537,0.0507 -0.95544,0.0717 l 2.34082,37.23813 c 0.71126,-0.0469 1.42002,-0.10096 2.12584,-0.1672 l -3.51122,-37.14259 z m -5.864,0.0956 -2.34082,37.25007 c 0.70362,0.0405 1.40533,0.0742 2.11391,0.0956 l 1.18235,-37.30979 c -0.31988,-0.0109 -0.63755,-0.0173 -0.95544,-0.0358 z m 4.63387,0 c -0.31789,0.0185 -0.63555,0.0249 -0.95543,0.0358 l 1.18235,37.29785 c 0.70773,-0.0248 1.41117,-0.0636 2.1139,-0.10749 l -2.34082,-37.22619 z m -3.40374,0.0478 -1.18235,37.30979 c 0.68903,0.0183 1.38462,0.0358 2.07807,0.0358 0.0159,0 0.0318,10e-6 0.0478,0 l 0,-37.33368 c -0.31369,-10e-4 -0.63158,-0.004 -0.94349,-0.0119 z m 2.10196,0 c -0.28812,0.007 -0.5822,0.0109 -0.87184,0.0119 l 0,37.32173 c 0.71017,-0.003 1.42037,-0.0136 2.12585,-0.0358 l -1.18235,-37.29784 c -0.0239,7.9e-4 -0.0477,-7.9e-4 -0.0717,0 z"
       id="path33085" />
  </g>
</svg>
